<?xml version="1.0" encoding="UTF-8"?>
<svg id="Calque_2" data-name="Calque 2" xmlns="http://www.w3.org/2000/svg" viewBox="0 0 999.97 1000">
  <defs>
    <style>
      .cls-1 {
        fill: #fff;
        stroke-width: 0px;
      }
    </style>
  </defs>
  <g id="Calque_1-2" data-name="Calque 1">
    <path class="cls-1" d="m499.97,0c-.07,0-.13,0-.19,0-.02,0-.04,0-.07,0-.05,0-.08,0-.13,0-.03,0-.05,0-.08,0-.05,0-.07,0-.12,0-.03,0-.05,0-.08,0-.05,0-.07,0-.12,0-.03,0-.05,0-.08,0-.03,0-.08,0-.12,0-.03,0-.05,0-.08,0-.03,0-.09,0-.12,0-.03,0-.05,0-.08,0-.03,0-.09,0-.12,0-.02,0-.05,0-.07,0-.03,0-.09,0-.13,0-.02,0-.05,0-.07,0-.03,0-.1,0-.13,0-.02,0-.04,0-.06,0-.05,0-.1,0-.15,0-.02,0-.03,0-.05,0-.07,0-.11,0-.17,0,0,0-.01,0-.02,0-.34,0-.67,0-1,0,0,0,0,0,0,0-.07,0-.13,0-.19,0,0,0,0,0,0,0-.07,0-.13,0-.19,0,0,0,0,0,0,0-.07,0-.13,0-.2,0,0,0,0,0,0,0-.07,0-.13,0-.2,0,0,0,0,0,0,0-2.29.02-4.57.05-6.85.1,0,0-.02,0-.03,0-.05,0-.11,0-.16,0-.03,0-.06,0-.09,0-.02,0-.08,0-.1,0-.04,0-.08,0-.12,0-.02,0-.05,0-.06,0-.05,0-.09,0-.14,0-.02,0-.03,0-.05,0-.05,0-.1,0-.16,0-.02,0-.01,0-.03,0-.06,0-.12,0-.17,0h0s.07,3,.07,3c3.95-.09,7.97-.14,11.93-.14V0h0Zm-23.99.57s0,0-.01,0c-.06,0-.11,0-.17,0-.02,0-.02,0-.04,0-.05,0-.09,0-.14,0-.05,0-.05,0-.1,0-.03,0-.06,0-.08,0-3.26.16-6.5.35-9.75.57-.56.04-1.12.08-1.68.12l.21,2.99c3.95-.28,7.95-.52,11.91-.7l-.14-3h0Zm-23.94,1.7c-.06,0-.12.01-.17.02h-.02c-.06,0-.11.01-.17.02h-.02c-.05,0-.11.01-.16.02-.02,0-.01,0-.03,0-.05,0-.11.01-.16.02-.02,0-.01,0-.03,0-.05,0-.11.01-.16.02-.02,0-.01,0-.03,0-.05,0-.11.01-.16.02h-.03c-.06,0-.11.01-.17.02h-.02c-.06,0-.11.01-.17.02-.02,0,0,0-.02,0-.06,0-.12.01-.18.02h0c-.93.09-1.86.19-2.8.28h0c-.06,0-.12.01-.18.02h0c-.06,0-.12.01-.18.02h0c-.06,0-.12.01-.18.02h0c-.06,0-.12.01-.18.02-.02,0,0,0-.01,0-.06,0-.11.01-.17.02h-.02c-.06,0-.12.01-.17.02h0c-.06,0-.12.01-.18.02h0c-.35.04-.69.08-1.04.11-.03,0-.05,0-.08,0-.03,0-.06,0-.09,0-.03,0-.07,0-.1.01-.03,0-.05,0-.08,0-.05,0-.07,0-.12.01-.02,0-.04,0-.06,0-.05,0-.09,0-.14.02-.02,0-.03,0-.05,0-.05,0-.1.01-.15.02-.01,0-.03,0-.04,0-.05,0-.1.01-.15.02-.01,0-.03,0-.04,0-.07,0-.1.01-.17.02,0,0,0,0-.01,0-1.28.14-2.54.29-3.82.44l.36,2.98c3.93-.47,7.92-.9,11.86-1.27l-.28-2.99h0Zm-23.83,2.84c-3.97.57-7.92,1.19-11.86,1.85l.5,2.96c3.9-.66,7.87-1.28,11.79-1.84l-.43-2.97h0Zm-23.67,3.98c-3.93.76-7.85,1.57-11.75,2.42l.64,2.93c3.87-.84,7.8-1.65,11.68-2.4l-.57-2.95h0Zm-23.45,5.12c-3.9.95-7.76,1.94-11.62,2.98l.78,2.9c3.82-1.03,7.71-2.03,11.55-2.97l-.71-2.91h0Zm-23.17,6.25h-.01s-.04.02-.06.02c-.05.01-.07.02-.12.03-.02,0-.05.01-.07.02-.05.01-.07.02-.11.03-.02,0-.05.01-.07.02-.05.01-.06.02-.11.03-.02,0-.05.01-.07.02-.05.01-.06.02-.11.03-.03,0-.06.02-.08.03-.05.01-.05.02-.1.03-.03,0-.05.02-.08.02-.05.01-.06.02-.11.03-.03,0-.05.02-.08.02-.05.01-.06.02-.11.03-.02,0-.05.01-.07.02-.05.01-.07.02-.11.03-.02,0-.05.01-.07.02-.05.01-.07.02-.11.03-.02,0-.05.01-.07.02-.03,0-.08.02-.11.03-.03,0-.05.02-.08.02-.03,0-.07.02-.1.03-.02,0-.05.01-.07.02-.03,0-.08.02-.11.03-.03,0-.05.02-.08.02-.03,0-.07.02-.1.03-.03,0-.05.02-.08.02-.03,0-.07.02-.1.03-.03,0-.06.02-.08.02-.03,0-.07.02-.1.03-.03,0-.05.02-.08.02-.03,0-.08.02-.11.03-.03,0-.05.02-.08.02-.03,0-.07.02-.1.03-.03,0-.05.02-.08.02-.03,0-.07.02-.1.03-.03,0-.06.02-.09.03-.03,0-.06.02-.09.03-.03,0-.06.02-.09.03-.03,0-.06.02-.09.03-.03,0-.06.02-.1.03-.03,0-.05.02-.09.03-.03,0-.06.02-.09.03-.03,0-.06.02-.09.03-.03,0-.06.02-.09.03-.03,0-.06.02-.09.03-.03,0-.06.02-.09.03-.03,0-.06.02-.09.03-.03,0-.06.02-.09.03-.03,0-.06.02-.09.03-.03,0-.06.02-.09.03-.03,0-.06.02-.09.03-.03,0-.06.02-.09.03-.02,0-.07.02-.08.03-.03.01-.07.02-.1.03-.02,0-.06.02-.07.02-.04.01-.07.02-.11.03-.02,0-.05.01-.06.02-.04.01-.08.02-.12.04-.03,0-.04.01-.07.02-.04.01-.08.02-.11.03-.03,0-.04.01-.07.02-.04.01-.08.02-.12.04t-.06.02s-.08.03-.12.04c-.02,0-.03,0-.04.01-.05.01-.09.03-.14.04-.02,0,0,0-.01,0-.35.11-.7.22-1.05.33h0c-.06.02-.11.04-.17.06-.02,0,0,0,0,0-.05.02-.1.03-.15.05-.02,0-.01,0-.03,0-.05.01-.09.03-.14.04-.02,0-.02,0-.04.01-.04.01-.08.03-.13.04-.03,0-.03,0-.06.02-.04.01-.08.03-.13.04-.02,0-.04.01-.05.02-.04.01-.08.03-.13.04-.02,0-.04.01-.06.02-.04.01-.08.02-.12.04-.02,0-.05.02-.07.02-.03.01-.07.02-.1.03-.02,0-.07.02-.08.03-.03.01-.07.02-.1.03-.02,0-.06.02-.08.02-.04.01-.07.02-.11.03-.02,0-.06.02-.07.02-.04.01-.07.02-.11.03-.02,0-.06.02-.07.02-.03.01-.07.02-.1.03-.03,0-.05.02-.08.03-.03.01-.07.02-.1.03-.03,0-.05.02-.08.02-.03.01-.07.02-.1.03-.03,0-.05.02-.08.03-.03,0-.06.02-.09.03-.03,0-.06.02-.09.03-.03,0-.06.02-.09.03-.03,0-.07.02-.1.03-.03,0-.05.02-.08.03-.03,0-.07.02-.1.03-.03,0-.06.02-.09.03-.03,0-.07.02-.1.03-.03,0-.05.02-.08.02-.03,0-.08.02-.11.03-.02,0-.05.01-.07.02-.03,0-.08.03-.11.04-.02,0-.04.01-.07.02-.03,0-.08.03-.11.04-.02,0-.04.01-.07.02-.03,0-.09.03-.12.04-.02,0-.03.01-.05.02-.05.01-.09.03-.14.04-.01,0-.03,0-.04.01-.02,0-.03.01-.05.02l.92,2.86c3.77-1.21,7.6-2.4,11.4-3.52l-.85-2.88h0Zm-22.84,7.36c-1.42.49-2.83,1-4.24,1.5h0c-.06.02-.12.04-.17.06h0c-.06.02-.11.04-.17.06h-.01c-.05.02-.11.04-.16.06h-.02c-.05.03-.1.04-.16.06-.01,0,0,0-.02,0-.05.02-.1.04-.15.06-.02,0,0,0-.02,0-.05.02-.1.04-.15.06-.02,0-.01,0-.03.01-.05.02-.1.04-.15.05-.01,0-.01,0-.03.01-.05.02-.1.04-.15.05-.02,0-.02,0-.03.01-.05.02-.1.03-.14.05-.02,0-.02,0-.03.01-.05.02-.1.04-.15.05-.02,0-.02,0-.03.01-.05.02-.1.04-.15.05-.01,0-.01,0-.03.01-.05.02-.1.04-.15.05h-.03c-.05.03-.1.05-.15.07h-.01c-.05.03-.11.04-.16.06h-.01c-1.05.39-2.09.77-3.13,1.16-.01,0-.01,0-.03,0-.05.02-.09.03-.14.05-.01,0-.03,0-.04.02-.04.02-.08.03-.12.05-.03.01-.03.01-.06.02-.03.01-.07.03-.11.04-.03.01-.05.02-.08.03-.03.01-.06.02-.08.03-.04.02-.05.02-.1.04-.02,0-.05.02-.07.03-.04.02-.06.02-.11.04-.02,0-.04.01-.06.02-.04.02-.08.03-.13.05-.02,0-.03.01-.04.02-.04.02-.09.03-.14.05-.01,0-.02,0-.03.01-.04.02-.06.02-.11.04l1.06,2.81c3.7-1.39,7.48-2.76,11.21-4.07l-.99-2.83h0Zm-22.46,8.46c-1.27.51-2.51,1.02-3.77,1.54,0,0,0,0,0,0-.18.07-.35.14-.52.22,0,0,0,0,0,0-.06.02-.11.04-.16.07,0,0,0,0-.01,0-.06.02-.11.05-.17.07,0,0,0,0,0,0-.12.05-.23.1-.35.14,0,0,0,0,0,0-.06.02-.11.05-.17.07,0,0,0,0,0,0-.06.02-.11.05-.17.07,0,0,0,0,0,0-.12.05-.22.09-.34.14,0,0,0,0-.01,0-.04.02-.1.04-.15.06-.01,0-.02,0-.03.01-.04.02-.09.04-.14.06-.01,0-.03.01-.04.02-.04.02-.1.04-.14.06-.01,0-.02,0-.03.01-.04.02-.09.04-.13.05-.02,0-.03.01-.05.02-.04.02-.06.03-.11.05-.02,0-.05.02-.07.03-.03.01-.07.03-.1.04-.03.01-.05.02-.08.03-.03.01-.05.02-.08.03-.03.01-.06.03-.1.04-.01,0,0,0-.02,0-1.37.58-2.75,1.17-4.11,1.76l1.19,2.75c3.63-1.57,7.33-3.12,11-4.6l-1.12-2.78h0Zm-22.02,9.53c-1.36.63-2.72,1.26-4.08,1.91h0c-.11.05-.22.11-.34.16h0c-.11.05-.22.11-.33.16h0c-.05.03-.11.05-.16.08h-.01c-.05.03-.1.05-.15.08h-.02s-.1.06-.15.08h-.02s-.1.06-.14.08h-.03s-.09.06-.14.08h-.03s-.09.06-.14.08h-.03s-.1.06-.14.08h-.02s-.1.06-.15.08h-.02s-.1.06-.14.08c-.01,0-.01,0-.03.01-.05.02-.1.05-.14.07-.01,0-.01,0-.03.01-.05.02-.1.05-.15.07-.01,0,0,0-.02,0-.05.02-.1.05-.15.07-.01,0-.01,0-.02.01-.05.02-.1.05-.15.07-.01,0,0,0-.02,0-.05.02-.1.05-.15.07-.01,0,0,0-.02,0-.05.03-.1.05-.16.08-.01,0,0,0,0,0-.05.03-.11.05-.16.08h0c-.05.03-.11.06-.16.08h0c-.05.03-.11.06-.16.08-.01,0,0,0-.01,0-.05.03-.1.05-.16.08h0c-.05.03-.11.05-.16.08h-.01c-.05.03-.11.06-.16.08h0c-.05.03-.11.06-.16.08h0c-.79.38-1.57.77-2.36,1.15l1.32,2.69c3.55-1.75,7.18-3.47,10.77-5.13l-1.26-2.72h0Zm-21.54,10.58c-3.42,1.79-6.81,3.6-10.19,5.47-.13.07-.26.14-.38.21l1.45,2.63c3.46-1.91,7-3.81,10.51-5.64l-1.39-2.66h0Zm-21,11.61c-1.17.68-2.32,1.36-3.48,2.05,0,0,0,0,0,0-.05.03-.1.06-.15.09,0,0-.01,0-.02.01-.05.03-.08.05-.13.08-.01,0-.02.01-.03.02-.04.02-.08.05-.12.07-.02,0-.03.02-.05.03-.03.02-.07.04-.09.06-.03.02-.05.03-.08.05-.03.02-.04.02-.07.04-.03.02-.07.04-.1.06-.01,0-.03.02-.05.03-.04.02-.08.05-.12.07-.01,0-.02.01-.03.02-.05.03-.09.06-.14.09h0c-1.88,1.13-3.74,2.26-5.6,3.41l1.58,2.55c3.37-2.08,6.81-4.14,10.23-6.14l-1.51-2.59h0Zm-20.42,12.6c-2.31,1.5-4.6,3.02-6.88,4.55h0s-.1.07-.15.1h0s-.1.07-.15.1h0s-.09.07-.14.1h-.02s-.08.07-.12.09c-.01,0-.02.02-.04.03-.04.03-.08.05-.12.08-.01,0-.02.02-.04.02-.04.03-.08.05-.11.08-.01,0-.03.02-.04.03-.04.02-.07.05-.11.07-.01,0-.03.02-.05.03-.03.02-.06.04-.1.07-.01,0-.05.03-.06.04-.03.02-.06.04-.1.07-.01,0-.05.03-.06.04-.03.02-.06.04-.09.06-.01,0-.05.04-.07.04-.03.02-.06.04-.09.06-.01,0-.06.04-.07.05-.02.02-.05.03-.07.05-.04.03-.05.03-.09.06-.02.01-.04.03-.07.04-.04.03-.05.04-.09.06-.02.01-.04.03-.06.04-.04.03-.06.04-.09.06-.02.01-.04.03-.06.04-.04.03-.06.04-.1.07-.02.01-.03.02-.05.03-.04.03-.07.05-.11.07-.02.01-.03.02-.05.03-.04.03-.07.05-.11.08-.01,0-.03.02-.04.03-.04.03-.08.05-.12.08-.01,0-.03.02-.04.03-.04.03-.08.06-.12.08,0,0-.01,0-.02.01-.04.03-.06.04-.1.07l1.7,2.47c3.27-2.24,6.6-4.47,9.92-6.62l-1.64-2.51h0Zm-19.8,13.57c-1.55,1.12-3.07,2.23-4.61,3.36,0,0-.01,0-.02.01-.05.04-.08.06-.13.09,0,0-.02.01-.03.02-.04.03-.08.06-.12.09-.02.01-.03.02-.05.03-.03.02-.07.05-.1.07-.02.02-.04.03-.07.05-.03.02-.05.04-.07.05l-.09.07s-.03.02-.05.04c-.04.03-.07.05-.11.08l-.03.03s-.09.06-.13.1h0c-1.35,1.01-2.7,2.02-4.05,3.04l1.81,2.39c3.15-2.39,6.38-4.78,9.59-7.09l-1.75-2.43h0Zm-19.12,14.5c-.32.25-.64.51-.95.76,0,0-.02.02-.03.02-.04.03-.08.06-.11.09-.01,0-.02.02-.03.03-.04.03-.06.05-.1.08-.02.02-.04.03-.06.05-.02.02-.05.04-.08.06-.03.02-.05.04-.08.06-.01,0-.04.04-.06.05-.03.03-.07.05-.1.08-.01,0-.03.02-.04.03-.04.03-.07.06-.11.09-.01,0-.02.02-.03.03-.04.03-.08.06-.12.1-.01,0,0,0-.01.01-.05.04-.09.07-.14.11-.01,0,0,0,0,0-1.22.98-2.43,1.96-3.63,2.95-.01,0,0,0,0,0-.04.04-.09.07-.13.11-.01,0-.01.01-.03.02-.04.03-.08.07-.12.1-.01,0-.01.01-.03.02-.04.03-.08.06-.12.09-.01,0-.02.02-.03.03-.04.03-.07.06-.11.09-.01,0-.03.03-.05.04-.03.02-.06.05-.09.08-.02.02-.04.03-.06.05-.03.02-.05.04-.08.06-.02.02-.05.04-.08.06-.02.02-.04.04-.06.05-.02.02-.06.05-.08.07-.02.02-.04.03-.06.05-.02.02-.07.06-.1.08-.01.01-.03.02-.04.03-.05.04-.07.06-.12.1,0,0-.02.01-.02.02-.05.04-.08.07-.13.11,0,0,0,0,0,0-.69.57-1.38,1.15-2.07,1.72l1.92,2.3c3.04-2.54,6.15-5.08,9.24-7.54l-1.87-2.35h0Zm-18.41,15.39c-.13.11-.24.21-.37.33,0,0,0,0,0,0-.05.04-.09.08-.14.12,0,0,0,0,0,0-.05.04-.08.07-.13.11,0,0,0,0-.01.01-.05.04-.07.07-.12.11,0,0-.01.01-.02.02-.04.03-.08.07-.11.1-.01,0-.02.02-.03.03-.04.03-.08.07-.11.1,0,0-.02.02-.03.02-.04.03-.07.06-.11.09-.01.01-.03.02-.04.03-.04.03-.06.05-.09.08-.02.01-.03.03-.05.04-.04.03-.05.05-.09.08-.02.02-.04.03-.06.05-.02.02-.06.05-.08.07-.02.02-.04.03-.06.05-.02.02-.05.05-.08.07l-.07.06s-.05.04-.06.05c-.03.02-.05.05-.08.07-.01.01-.04.04-.05.05-.03.03-.06.05-.09.08-.01.01-.04.03-.05.04-.03.03-.06.05-.09.08-.01.01-.04.04-.05.05-.03.03-.06.06-.09.08-.01.01-.03.02-.04.03-.03.03-.07.06-.1.09-.01.01-.02.02-.03.03-.04.03-.08.07-.11.1-.01.01,0,0-.02.02-.04.04-.08.07-.12.11-.01.01-.01.01-.03.02-.04.03-.08.07-.12.1-.01.01,0,0-.02.01-.04.04-.08.07-.12.11-.01.01,0,0-.01.01-.04.04-.09.08-.13.12h0s-.09.08-.13.12c-.01.01,0,0-.01.01-.04.04-.09.08-.13.12h0c-.42.38-.84.75-1.25,1.13h0c-.09.09-.18.17-.27.25-.01.01,0,0-.01,0-.04.04-.09.08-.13.12h0s-.09.08-.13.12c-.01.01,0,0-.02.02-.04.04-.08.07-.12.11-.01.01,0,0-.02.02-.04.03-.07.07-.11.1-.01.01-.03.03-.04.04-.03.03-.06.06-.1.09-.01.01-.04.03-.05.04-.03.03-.06.05-.09.08-.01.01-.05.04-.06.05-.03.02-.05.05-.08.07-.02.02-.04.04-.07.06-.02.02-.04.04-.06.06-.02.02-.06.06-.09.08-.02.01-.03.03-.05.04-.03.03-.07.06-.1.09-.01,0-.02.02-.03.03-.05.04-.07.06-.11.1,0,0-.02.02-.02.02-.8.73-1.6,1.46-2.39,2.19l2.03,2.21c2.91-2.68,5.9-5.36,8.87-7.97l-1.98-2.25h0Zm-17.65,16.26c-2.1,2.03-4.16,4.05-6.23,6.12,0,0-.01.01-.02.02-.04.04-.07.07-.11.11,0,0-.01.01-.02.02-.03.03-.07.07-.1.11-.01.01-.02.02-.03.03-.03.03-.06.06-.09.09-.02.02-.03.03-.05.05-.02.02-.05.05-.07.07-.02.02-.05.05-.07.07-.01.01-.04.04-.05.05-.03.03-.06.06-.08.08-.01.01-.03.03-.04.04-.03.03-.07.07-.1.1t-.02.02s-.08.08-.12.12c-.01.01,0,0,0,0-.44.44-.88.89-1.32,1.33l2.13,2.11c2.78-2.82,5.63-5.64,8.48-8.39l-2.08-2.16h0Zm-16.86,17.08c-.17.18-.34.36-.51.55h0c-.17.18-.34.36-.51.54-.01.01,0,0-.01.01-.04.04-.08.09-.12.13-.01.01,0,0,0,0-.04.04-.08.09-.12.13-.01.01,0,0,0,0-.04.04-.08.09-.12.13-.01.01,0,0,0,0-.04.04-.08.08-.12.12-.01.01,0,0-.02.02-.04.04-.08.08-.11.12-.01.01,0,0-.01.01-.04.04-.08.08-.12.13-.01.01,0,0-.01.01-.04.04-.08.08-.12.13-.01.01,0,0,0,0-.04.04-.08.08-.11.12-.01.01-.01.01-.02.02-.04.04-.07.08-.11.12-.01.01,0,0-.02.02-.04.04-.07.08-.11.12-.01.01,0,0-.02.02-.04.04-.07.08-.11.12-.01.01,0,0-.01.01-.04.04-.07.08-.11.12-.01.01,0,0-.02.02-.04.04-.07.08-.11.12-.01.01,0,0-.01.01-.04.04-.08.08-.12.13-.01.01,0,0-.01.01-.04.04-.08.09-.12.13-.01.01,0,0,0,0-.04.04-.08.09-.12.13-.01.01,0,0-.01.02-.04.04-.08.08-.12.13h0s-.08.09-.12.14c-.01.01,0,0,0,0-.08.09-.17.18-.25.27-.01.01,0,0,0,0-1.52,1.65-3.04,3.32-4.54,4.99l2.23,2c2.64-2.95,5.36-5.9,8.07-8.78l-2.18-2.06h0Zm-16.03,17.86c-2.59,3.03-5.17,6.12-7.69,9.21l2.33,1.89c2.5-3.07,5.07-6.15,7.64-9.16l-2.28-1.95h0Zm-15.15,18.61c-1.26,1.63-2.52,3.26-3.76,4.91v.02s-.08.08-.11.13c0,.01-.02.03-.03.04-.03.04-.05.07-.08.11,0,.01-.03.04-.04.06-.02.03-.04.06-.06.09-.03.04-.03.05-.06.08-.02.02-.03.04-.05.06-.03.04-.05.07-.08.1-.01.01-.02.03-.03.04-.03.04-.06.08-.09.12,0,0-.01.02-.02.03-.95,1.26-1.89,2.52-2.82,3.79l2.41,1.78c2.35-3.18,4.77-6.38,7.2-9.51l-2.37-1.84h0Zm-14.25,19.31c-.53.76-1.04,1.49-1.57,2.24-1.76,2.54-3.49,5.09-5.21,7.66l2.5,1.66c2.19-3.29,4.46-6.61,6.73-9.85l-2.46-1.72h0Zm-13.31,19.97c-1.87,2.96-3.71,5.93-5.51,8.93,0,.01,0,0,0,.01-.03.05-.06.1-.09.15,0,.01,0,0,0,.02-.03.05-.06.1-.09.14,0,.01,0,.01-.01.02-.03.04-.05.09-.08.13,0,.01-.01.02-.02.03-.03.04-.05.08-.08.13,0,.01-.02.03-.03.04-.02.04-.05.08-.07.11,0,.01-.02.04-.03.05-.02.03-.04.07-.06.1,0,.01-.03.05-.04.07-.02.03-.04.06-.05.09-.02.03-.03.05-.05.08-.02.03-.03.05-.05.08l-.02.03,2.57,1.54c2.03-3.39,4.14-6.81,6.25-10.16l-2.54-1.6h0Zm-12.34,20.59c-.43.77-.87,1.54-1.3,2.31,0,0-.01.02-.02.03-.02.04-.05.09-.07.13-.02.03-.03.05-.05.08,0,.01-.03.06-.04.07-.03.05-.05.09-.08.14h0c-1.43,2.58-2.84,5.15-4.23,7.74l2.64,1.42c1.87-3.49,3.81-7,5.76-10.45l-2.61-1.48h0Zm-11.33,21.15c-.39.78-.78,1.56-1.17,2.34h0c-.02.05-.05.1-.07.15,0,.01-.01.03-.02.04-.02.03-.03.07-.05.1-.01.03-.03.05-.04.08-.01.02-.02.05-.03.07-.02.04-.03.06-.05.1,0,.02-.02.04-.03.05-.02.04-.04.09-.06.13,0,0,0,.01,0,.02-1.27,2.56-2.51,5.11-3.74,7.7l2.71,1.29c1.7-3.57,3.46-7.18,5.25-10.71l-2.68-1.35h0Zm-10.3,21.68s-.03.06-.03.07c0,.01-.01.03-.02.04-.02.04-.04.09-.06.13,0,.01-.01.03-.02.04-.02.04-.03.08-.05.12,0,.02-.02.04-.03.06-.01.03-.04.08-.05.11,0,.02-.02.04-.03.06-.01.03-.04.08-.05.11,0,.02-.02.04-.03.06-.01.03-.03.08-.05.11,0,.02-.02.04-.03.06-.01.03-.03.08-.05.1-.01.02-.02.05-.03.07-.01.03-.03.07-.04.1-.01.02-.02.05-.03.07-.01.03-.03.07-.05.1-.01.02-.02.05-.03.07-.01.03-.03.07-.04.1-.01.03-.02.05-.03.08-.01.03-.03.06-.04.09-.01.03-.03.06-.04.09,0,.01-.03.06-.03.08-.01.03-.03.06-.04.1,0,.01-.03.06-.03.08-.01.03-.03.07-.04.1,0,.01-.02.05-.03.06-.02.04-.03.07-.05.11,0,.01-.02.04-.02.05-.02.04-.04.08-.05.12,0,.01-.01.03-.02.04-.02.04-.04.09-.06.13,0,.01-.01.03-.02.05-.02.04-.04.09-.06.13v.03s-.06.1-.08.15h0c-.95,2.18-1.88,4.35-2.8,6.54,0,.01,0,0,0,.02-.02.05-.04.1-.07.16,0,.01,0,0,0,.01-.02.05-.04.1-.06.15,0,.01,0,.02-.01.03-.02.05-.04.09-.06.14,0,.01,0,.02-.01.04-.02.04-.04.08-.05.13,0,.01-.02.04-.02.06-.02.04-.03.07-.05.11-.01.03-.02.04-.03.07-.01.03-.03.06-.04.1-.01.03-.02.06-.04.09-.01.03-.02.06-.03.08-.01.03-.03.07-.04.09,0,.02-.02.05-.03.07,0,.01-.02.04-.02.06l2.77,1.16c1.52-3.65,3.11-7.34,4.73-10.95l-2.74-1.22h0Zm-9.24,22.15c-1.1,2.81-2.16,5.63-3.21,8.47,0,0,0,.01,0,.02-.02.06-.03.09-.05.15,0,.02-.01.04-.02.06-.01.03-.03.08-.04.11-.01.03-.02.06-.03.09-.01.03-.02.04-.03.07-.01.04-.03.08-.04.12,0,.01-.01.03-.02.04-.26.7-.51,1.4-.76,2.1l2.82,1.02c1.35-3.72,2.76-7.48,4.19-11.17l-2.8-1.09h0Zm-8.16,22.57c-.32.94-.63,1.89-.94,2.83,0,.02,0,0,0,.02-.02.05-.03.1-.05.15,0,.02,0,.02-.01.04-.01.04-.03.09-.04.13,0,.02-.01.04-.02.06-.01.04-.02.08-.04.11,0,.03-.01.04-.02.07-.01.03-.02.07-.03.1,0,.03-.02.05-.03.08,0,.03-.02.06-.03.09,0,.03-.02.07-.03.1,0,.03-.02.05-.03.08,0,.03-.03.08-.04.11,0,.02-.01.04-.02.07,0,.03-.03.09-.04.12,0,.02-.01.04-.02.06-.01.05-.03.09-.04.13,0,.01,0,.03-.01.04-.02.06-.03.09-.05.15,0,0,0,.02,0,.02-.02.06-.03.11-.05.17,0,0,0,0,0,.01-.02.06-.04.12-.06.18h0c-.7,2.16-1.38,4.34-2.05,6.51l2.87.88c1.16-3.78,2.39-7.6,3.65-11.36l-2.84-.95h0Zm-7.06,22.94c-.73,2.6-1.45,5.22-2.14,7.84h0c-.33,1.25-.65,2.5-.97,3.75l2.91.74c.98-3.83,2.02-7.71,3.09-11.52l-2.89-.81h0Zm-5.94,23.25c-.14.63-.29,1.26-.43,1.89,0,0,0,0,0,0-.01.06-.03.12-.04.18,0,0,0,0,0,.01-.01.06-.03.11-.04.18,0,0,0,.01,0,.02-.01.06-.02.11-.04.17,0,0,0,.01,0,.02-.01.06-.02.1-.04.16,0,.01,0,.02,0,.03-.01.06-.02.1-.04.16,0,0,0,.01,0,.02-.01.06-.02.1-.04.17,0,0,0,.02,0,.02-.01.06-.02.1-.04.17,0,0,0,.01,0,.02-.01.06-.02.1-.04.17,0,0,0,.02,0,.02-.01.06-.02.1-.04.17,0,0,0,.01,0,.02-.01.06-.02.1-.04.17,0,0,0,.01,0,.02-.01.06-.02.11-.04.17,0,0,0,.01,0,.02-.01.06-.02.11-.04.17,0,0,0,.01,0,.02-.14.63-.28,1.26-.41,1.89,0,0,0,.01,0,.01-.01.06-.02.11-.04.17,0,0,0,.02,0,.03-.01.05-.02.11-.03.15,0,.02,0,.03-.01.05-.01.05-.02.09-.03.14,0,.02,0,.04-.01.06-.01.05-.02.08-.03.13,0,.02,0,.04-.01.06,0,.03-.02.09-.03.12,0,.02-.01.05-.02.07,0,.03-.02.08-.02.11,0,.03-.01.05-.02.08,0,.03-.02.08-.02.11,0,.03-.01.05-.02.08,0,.03-.02.07-.02.1,0,.03-.01.06-.02.09,0,.03-.01.06-.02.1,0,.03-.01.06-.02.09,0,.03-.01.05-.02.09,0,.04-.02.07-.02.11,0,.03,0,.04-.02.07,0,.04-.02.08-.03.12,0,.02,0,.04-.01.06,0,.04-.02.09-.03.13,0,.02,0,.03,0,.05-.01.05-.02.1-.03.14,0,.02,0,.01,0,.03-.01.05-.02.11-.03.16,0,.02,0,0,0,.02-.21.98-.41,1.95-.61,2.93l2.94.6c.79-3.88,1.65-7.8,2.53-11.66l-2.92-.67h0Zm-4.81,23.51c-.47,2.64-.93,5.28-1.36,7.94h0c0,.07-.02.12-.03.18,0,.02,0,.02,0,.03,0,.05-.02.1-.02.15,0,.02,0,.04,0,.05,0,.04-.01.08-.02.13,0,.02,0,.06-.01.08,0,.03-.01.07-.02.11,0,.03-.01.08-.02.11,0,.02,0,.05-.01.07,0,.05-.02.1-.02.15,0,.01,0,.02,0,.04-.15.94-.3,1.88-.44,2.82l2.96.46c.61-3.91,1.27-7.87,1.97-11.76l-2.95-.53h0Zm-3.68,23.71c-.15,1.12-.29,2.27-.43,3.39,0,0,0,0,0,0,0,.07-.01.11-.02.18,0,.02,0,.03,0,.05,0,.03-.01.1-.02.13,0,.03,0,.05,0,.08,0,.03,0,.06-.01.1,0,.04,0,.08-.01.12,0,.03,0,.03,0,.06,0,.05-.01.09-.02.14v.04c-.01.05-.02.11-.02.16v.02c-.3,2.48-.58,4.96-.85,7.45l2.98.32c.42-3.94.89-7.92,1.4-11.84l-2.97-.39h0Zm-2.53,23.86c-.17,2.09-.33,4.17-.48,6.27,0,.03,0,.05,0,.09,0,.02,0,.03,0,.05,0,.05,0,.1-.01.15,0,.01,0,.03,0,.04,0,.05,0,.11-.01.16,0,0,0,.02,0,.02,0,.07,0,.11-.01.17,0,0,0,.01,0,.02,0,.07,0,.12-.01.18,0,0,0,0,0,0-.11,1.61-.21,3.21-.3,4.82l2.99.17c.23-3.95.51-7.96.83-11.9l-2.99-.25h0Zm-1.39,23.96c-.04,1.09-.07,2.18-.1,3.28,0,.03,0,.06,0,.1v.07c0,.05,0,.08,0,.13,0,.02,0,.04,0,.05,0,.05,0,.1,0,.15,0,.01,0,.03,0,.04,0,.05,0,.11,0,.16,0,0,0,.02,0,.03,0,.07,0,.11,0,.17,0,0,0,.01,0,.02,0,.07,0,.12,0,.19,0,0,0,0,0,0,0,.07,0,.13,0,.2,0,0,0,0,0,0-.06,2.46-.11,4.93-.13,7.41l3,.03c.04-3.96.13-7.97.27-11.93l-3-.1H.27Zm2.74,23.98l-3,.04c0,.39.01.77.02,1.15,0,0,0,0,0,0,0,.07,0,.11,0,.18,0,.03,0,.05,0,.08,0,.03,0,.07,0,.11,0,.04,0,.08,0,.12,0,.02,0,.05,0,.07,0,.05,0,.1,0,.14,0,.02,0,.02,0,.04,0,.06,0,.11,0,.17h0c.03,1.89.07,3.76.13,5.63h0c0,.07,0,.12,0,.18v.03c0,.05,0,.1,0,.16,0,.02,0,.03,0,.05,0,.05,0,.09,0,.14,0,.02,0,.06,0,.08,0,.04,0,.07,0,.11,0,.03,0,.08,0,.11,0,.02,0,.05,0,.07,0,.07,0,.11,0,.18,0,0,0,0,0,.01.03,1.07.07,2.13.11,3.2l3-.11c-.14-3.95-.24-7.96-.29-11.93h0Zm.87,23.84l-2.99.18c.09,1.44.18,2.87.28,4.31h0c0,.06,0,.12.01.18v.03c0,.05,0,.11.01.16v.03c0,.05,0,.1.01.16,0,.02,0,.03,0,.04,0,.05,0,.09,0,.14,0,.02,0,.05,0,.06,0,.04,0,.08,0,.12,0,.02,0,.06,0,.08,0,.04,0,.07,0,.11,0,.02,0,.08,0,.09,0,.03,0,.06,0,.1,0,.05,0,.08,0,.13,0,.02,0,.04,0,.06.01.2.03.39.04.59,0,0,0,0,0,0,0,.07,0,.12.01.19,0,0,0,.02,0,.02,0,.07,0,.11.01.17,0,0,0,.02,0,.03,0,.07,0,.1.01.16,0,.01,0,.03,0,.04,0,.05,0,.1.01.15,0,.02,0,.03,0,.05,0,.05,0,.1.01.15,0,.02,0,.03,0,.05,0,.05,0,.1.01.15,0,.02,0,.04,0,.05,0,.03,0,.11.01.14,0,.02,0,.04,0,.06,0,.03,0,.1.01.13,0,.02,0,.04,0,.06,0,.03,0,.1.01.13v.06s.01.09.01.14c0,.02,0,.04,0,.06,0,.05,0,.09.01.14,0,.02,0,.04,0,.06,0,.05,0,.08.01.13,0,.02,0,.04,0,.07,0,.05,0,.08.01.13,0,.02,0,.04,0,.06,0,.05,0,.07,0,.12,0,.03,0,.05,0,.08,0,.02,0,.04,0,.05.07.92.15,1.83.22,2.75l2.99-.25c-.33-3.94-.62-7.94-.86-11.9h0Zm2,23.77l-2.98.32c.41,3.79.86,7.58,1.36,11.35v.02c0,.05.02.1.02.16,0,.02,0,.02,0,.04,0,.05.01.09.02.14,0,.02,0,.04,0,.06,0,.04.01.08.02.12,0,.02,0,.03,0,.04l2.97-.39c-.52-3.92-1-7.91-1.43-11.84h0Zm3.13,23.65l-2.96.47s0,.03,0,.06c0,.01,0,.03,0,.04,0,.05.02.1.02.15,0,.02,0,.03,0,.05,0,.03.02.11.02.14,0,.02,0,.03,0,.05,0,.03.02.11.02.14,0,.02,0,.04,0,.05,0,.03.02.11.02.14,0,.02,0,.03,0,.05,0,.05.01.09.02.14,0,.02,0,.04,0,.06,0,.05.01.09.02.14,0,.02,0,.03,0,.05,0,.05.01.09.02.14,0,.02,0,.04,0,.05,0,.05.01.09.02.13,0,.02,0,.04,0,.06,0,.05.01.07.02.12,0,.03,0,.05.01.07,0,.05.01.07.02.11,0,.03,0,.05.01.08,0,.05.01.06.02.11,0,.03,0,.05.01.08,0,.03.01.08.02.11,0,.03,0,.05.01.08,0,.03.01.06.02.09.02.14.05.29.07.43,0,.02,0,.02,0,.03,0,.05.02.1.02.15,0,.02,0,.02,0,.04,0,.05.02.1.03.16,0,.02,0,.01,0,.03,0,.05.02.11.03.16v.03c.01.05.02.11.03.16v.03c.01.05.02.11.03.16v.02c.01.05.02.11.03.16,0,.02,0,0,0,.02,0,.05.02.11.03.16,0,.02,0,0,0,.02,0,.05.02.11.03.16,0,.02,0,.01,0,.03,0,.05.02.11.03.16v.02c.01.06.02.11.03.17h0c0,.07.02.13.03.19h0c0,.07.02.13.03.18h0c0,.07.02.13.03.19h0c.01.07.02.13.03.19h0c.13.8.27,1.6.41,2.39h0c0,.06.02.11.03.16,0,.02,0,.03,0,.05,0,.04.02.09.02.13,0,.02,0,.04.01.06,0,.04.01.08.02.12,0,.02.01.06.01.08,0,.03.01.06.02.1,0,.03.01.06.02.1,0,.03,0,.05.01.08,0,.03.02.09.02.12,0,.02,0,.04,0,.06,0,.05.02.09.02.14,0,.01,0,.03,0,.04.01.06.02.09.03.16,0,0,0,.02,0,.03.01.06.02.11.03.18,0,0,0,0,0,0,.14.77.27,1.52.41,2.29l2.95-.54c-.71-3.89-1.38-7.85-1.99-11.76h0Zm4.27,23.47l-2.94.61c.18.88.36,1.75.55,2.62.65,3.04,1.32,6.07,2.02,9.1l2.92-.68c-.89-3.85-1.76-7.77-2.56-11.65h0Zm5.39,23.23l-2.91.75c1,3.88,2.04,7.74,3.14,11.58l2.89-.82c-1.08-3.81-2.13-7.68-3.12-11.51h0Zm6.51,22.95l-2.87.89c.61,1.97,1.24,3.94,1.87,5.9.6,1.84,1.21,3.68,1.82,5.52l2.84-.96c-1.26-3.75-2.5-7.57-3.67-11.35h0Zm7.61,22.61l-2.82,1.03c1.22,3.35,2.48,6.69,3.77,10.01.02.04.03.08.05.13l.02.04c.14.35.27.7.41,1.05l2.79-1.09c-1.44-3.69-2.86-7.44-4.21-11.16h0Zm8.7,22.21l-2.77,1.16s0,0,0,.02c.01.02.02.05.03.07.02.04.02.06.04.1,0,.02.02.04.03.06.02.04.03.07.05.12,0,.02.01.03.02.05.02.04.04.08.05.13,0,.01.01.03.02.04.02.04.04.1.06.14,0,0,0,.02.01.02.02.06.04.09.06.15,0,0,0,.02.01.03.02.06.04.09.06.15,0,0,0,.01,0,.02.02.06.04.09.06.15,0,0,0,.02,0,.02.02.06.04.1.07.16,0,0,0,0,0,0,.02.06.05.11.07.17,0,0,0,0,0,0,1.14,2.69,2.29,5.35,3.48,8.01,0,0,0,0,0,.01.03.06.05.11.07.17,0,0,0,0,0,0,.02.04.03.07.05.12.16.36.32.72.49,1.09l2.74-1.23c-1.62-3.61-3.22-7.29-4.75-10.94h0Zm9.76,21.77l-2.71,1.29c.32.68.65,1.35.97,2.02,1.42,2.93,2.86,5.84,4.33,8.74l2.68-1.36c-1.79-3.53-3.57-7.13-5.27-10.7h0Zm10.8,21.27l-2.64,1.42c.83,1.54,1.67,3.08,2.51,4.61h0c.03.05.06.1.08.15v.02s.06.09.08.13c0,.01.02.03.02.04.02.04.04.07.06.11,0,.01.03.05.03.06.02.03.03.06.05.08.02.04.03.05.05.09.01.02.02.04.04.07.02.04.03.06.06.1,0,.02.02.03.03.05.02.04.04.08.07.12,0,.01.01.02.02.04.02.04.05.1.08.14,0,0,0,0,0,0,.87,1.57,1.75,3.12,2.63,4.68l2.61-1.49c-1.96-3.44-3.9-6.95-5.78-10.43h0Zm11.81,20.73l-2.57,1.55c.88,1.45,1.75,2.88,2.64,4.33.01.02.03.05.04.07.02.03.04.06.06.09,0,.02.02.03.03.05.02.04.04.07.07.11.01.02.02.04.03.05.02.04.04.07.07.11.01.02.02.04.03.05.02.04.04.06.06.1.01.02.02.04.04.06.02.04.04.06.06.1,0,.01.01.02.02.04.02.04.05.08.08.12,0,.01.02.03.03.04.02.04.05.08.07.12,0,.01.02.03.02.04.02.04.05.08.07.12,0,.01.02.03.03.04.02.04.05.08.08.12,0,0,0,0,0,0,.03.05.06.1.09.15,0,0,0,0,0,0,.89,1.43,1.78,2.85,2.68,4.27l2.53-1.61c-2.12-3.34-4.23-6.75-6.27-10.14h0Zm12.79,20.14l-2.49,1.67c.51.76,1,1.5,1.51,2.25,0,0,0,0,0,.01.04.05.05.08.09.13,0,.01.02.02.03.04.03.04.05.08.08.11.01.02.02.03.03.05.02.03.05.07.06.09.02.03.03.05.05.08.02.03.03.05.05.07.02.03.04.06.06.09.02.03.02.03.03.05.03.04.05.07.07.11,0,.01.02.03.03.04.03.04.06.08.08.12v.02s.08.09.11.14h0c.03.06.07.11.1.16h0c.88,1.29,1.77,2.58,2.66,3.86h0c.04.05.07.1.11.15h0c.03.05.07.1.1.15,0,.01,0,0,0,.01.03.05.07.09.1.14,0,.01,0,0,0,.01.03.05.06.09.09.14,0,.01,0,.01.02.03.03.04.06.08.09.12,0,.01.02.02.03.04.03.04.05.07.08.11,0,.01.03.04.03.05.02.03.05.07.07.1,0,.01.03.04.04.06.02.03.04.06.07.09.02.03.03.04.05.07.02.03.04.05.06.08.02.03.03.05.05.08.02.03.04.05.05.08.02.03.04.06.06.09.01.02.03.04.05.06.02.03.05.07.06.09.01.02.03.04.04.06.02.03.05.08.07.1.01.02.02.03.03.05.03.04.05.08.08.12,0,.01.02.02.02.03.04.05.06.08.09.13,0,0,0,.01.01.02.04.05.06.09.1.14,0,0,0,0,0,.01,0,.01.03.04.04.05l2.45-1.73c-2.28-3.24-4.55-6.54-6.75-9.83h0Zm13.74,19.5l-2.41,1.79c.14.19.27.36.41.55,0,0,.01.01.02.02.03.04.05.07.08.11.01.02.02.03.03.05.03.04.03.05.06.08.02.02.04.05.05.07.02.03.03.03.04.06l.07.1s.01.02.02.03c.03.04.06.08.09.12v.02c2.1,2.8,4.22,5.58,6.37,8.34l2.37-1.84c-2.43-3.12-4.86-6.32-7.22-9.5h0Zm14.66,18.82l-2.32,1.9c1.65,2.02,3.31,4.02,5,6.01.01.01.02.02.03.04.02.02.04.04.06.07.02.03.04.05.07.08.01.01.01.02.02.03.84.99,1.68,1.98,2.53,2.97l2.28-1.95c-2.58-3-5.16-6.08-7.66-9.14h0Zm15.54,18.1l-2.23,2.01c2.37,2.64,4.78,5.25,7.21,7.84,0,0,.01.01.02.02.02.02.03.03.05.05.28.3.57.61.86.91l2.18-2.06c-2.72-2.88-5.44-5.83-8.09-8.77h0Zm16.38,17.34l-2.13,2.11c.61.62,1.23,1.24,1.85,1.86.03.03.05.05.09.08.01.01.03.03.04.04,2.17,2.16,4.37,4.32,6.57,6.44l2.08-2.16c-2.85-2.74-5.71-5.56-8.5-8.37h0Zm17.19,16.54l-2.03,2.21c1.84,1.69,3.7,3.36,5.56,5.03.01.01,0,0,0,0,.04.04.09.08.13.12.01.01,0,0,.02.01.04.04.08.07.12.11.01.01.02.02.03.03.04.03.07.06.11.1.02.02.02.02.04.04.03.03.06.06.1.09.02.02.05.04.07.06.02.02.04.04.07.06.04.03.06.05.1.08.01.01.03.03.04.04.05.04.08.07.13.12,0,0,0,0,0,0,.8.7,1.61,1.42,2.41,2.12l1.97-2.26c-2.98-2.6-5.97-5.28-8.89-7.96h0Zm17.96,15.7l-1.92,2.31c3.08,2.56,6.18,5.08,9.31,7.57l1.86-2.35c-3.1-2.46-6.22-4.99-9.26-7.52h0Zm18.69,14.82l-1.81,2.39c.64.48,1.28.97,1.92,1.45.01,0,.01,0,.03.02.03.02.06.04.08.06.03.02.05.03.07.05.02.01.03.02.05.03.04.03.07.05.11.08,0,0,.01,0,.01.01,2.31,1.72,4.62,3.41,6.96,5.1,0,0,0,0,.01,0,.05.04.09.06.14.1.02.01.04.03.06.04.04.03.05.04.09.06.04.03.07.05.11.08l.03.02,1.75-2.44c-3.21-2.31-6.45-4.69-9.61-7.07h0Zm19.38,13.91l-1.69,2.48c.72.49,1.44.98,2.16,1.46.01,0,0,0,.02.01.04.03.08.05.11.08.01,0,.04.03.06.04.03.02.05.03.08.05.04.03.05.04.09.06.02.01.03.02.05.03.04.03.08.05.12.08h.02c2.42,1.64,4.84,3.24,7.29,4.82l1.63-2.52c-3.32-2.15-6.66-4.37-9.93-6.6h0Zm20.02,12.97l-1.57,2.56c.09.06.19.12.29.18,0,0,0,0,0,0,.04.02.09.05.13.08.01,0,.03.02.04.03.03.02.06.04.09.05s.05.03.08.05c.03.02.02.01.05.03.04.02.08.05.12.07h0c1.33.81,2.67,1.62,4.01,2.42,1.78,1.07,3.56,2.11,5.35,3.16.02.01.04.03.07.04.03.02.05.03.08.05l1.51-2.59c-3.42-1.99-6.86-4.05-10.24-6.12h0Zm20.62,11.99l-1.45,2.63c.07.04.17.09.24.13.01,0,.03.02.04.02.04.02.06.03.1.06.03.01.05.03.08.04.01,0,.05.03.06.03.04.02.08.04.12.06.01,0,.02,0,.03.02,2.95,1.61,5.91,3.2,8.89,4.76.01,0,0,0,.02,0,.03.01.05.03.08.04.03.01.07.04.1.05,0,0,0,0,0,0,.28.15.54.28.82.42l1.38-2.66c-3.51-1.82-7.05-3.71-10.52-5.62h0Zm21.17,10.99l-1.32,2.7c.45.22.9.44,1.35.66h0c.05.03.11.05.16.08h.02s.1.06.14.08c.03.01.03.01.05.03.04.02.08.04.11.06.03.01.06.03.09.04.03.01.05.02.08.04.04.02.08.04.12.06.02,0,.03.02.05.02.11.05.22.1.33.16,0,0,0,0,0,0,2.76,1.33,5.54,2.64,8.33,3.92l1.25-2.73c-3.6-1.65-7.22-3.37-10.78-5.11h0Zm21.68,9.95l-1.19,2.76c.22.1.45.19.67.29.01,0,0,0,.02,0,.05.02.09.04.14.06.01,0,.03.01.04.02.04.02.08.03.12.05.01,0,.05.02.06.03.03.01.06.03.1.04.03.01.06.02.09.04.03.01.05.02.08.03.03.01.07.03.1.04.02,0,.04.02.07.03.03.01.08.04.11.05.02,0,.03.01.05.02.04.02.09.04.13.06.01,0,.03.01.04.02.06.02.08.03.14.06,0,0,.02,0,.03.01.06.02.09.04.15.07,0,0,.01,0,.02,0,.06.02.11.05.17.07,0,0,0,0,0,0,2.9,1.23,5.82,2.44,8.75,3.62l1.12-2.78c-3.67-1.48-7.38-3.02-11.01-4.58h0Zm22.13,8.9l-1.05,2.81s.03.01.06.02c0,0,.02,0,.03.01.06.02.08.03.14.05.02,0,.03.01.05.02.03.01.09.03.12.04.03,0,.05.02.08.03.03.01.06.02.09.03.03.01.06.02.09.03.03.01.05.02.08.03.03.01.07.03.1.04.03.01.04.01.07.02.04.01.08.03.12.04.03.01.02,0,.05.02.05.02.09.03.14.05h.03s.09.05.14.07h.03c.05.03.1.05.15.07h.01c.06.03.11.05.17.07h0c3.16,1.17,6.34,2.31,9.53,3.42l.98-2.83c-3.74-1.3-7.51-2.66-11.22-4.04h0Zm22.54,7.82l-.91,2.86c3.8,1.22,7.63,2.39,11.47,3.52l.84-2.88c-3.8-1.11-7.63-2.29-11.4-3.5h0Zm22.89,6.72l-.78,2.9c.2.05.42.11.62.17,0,0,0,0,0,0,.06.02.11.03.17.04,0,0,.02,0,.03,0,.06.02.09.02.15.04.01,0,.03,0,.04.01.05.01.09.02.14.04.02,0,.04.01.06.02.03,0,.09.02.12.03.02,0,.04.01.06.02.03,0,.08.02.11.03.03,0,.05.01.08.02.03,0,.06.02.1.03.03,0,.06.02.09.02.03,0,.06.02.09.02.03,0,.07.02.1.03.02,0,.06.02.08.02.03,0,.07.02.1.03.02,0,.06.02.07.02.04.01.08.02.12.03.02,0,.04,0,.05.01.04.01.09.02.13.03.02,0,.04.01.06.01.04.01.09.02.13.03h.03c.05.02.1.03.15.05h.01c2.9.76,5.8,1.49,8.72,2.2l.7-2.92c-3.85-.93-7.74-1.92-11.56-2.94h0Zm23.19,5.6l-.63,2.93s0,0,.03,0c.04,0,.09.02.13.03.03,0,.03,0,.06.01.04,0,.08.02.12.03.03,0,.03,0,.06.01.04,0,.08.02.12.03.02,0,.05,0,.06.01.04,0,.08.02.12.03.02,0,.05.01.07.01.04,0,.08.02.12.03.02,0,.05.01.07.02.04,0,.07.02.11.02.02,0,.06.01.08.02.04,0,.07.02.11.02.02,0,.06.01.08.02.04,0,.07.02.1.02.02,0,.07.01.08.02.04,0,.07.02.11.02.02,0,.05.01.07.01.04,0,.08.02.12.02.03,0,.03,0,.06.01.04,0,.08.02.13.03.02,0,.02,0,.04,0,.05.01.1.02.15.03.02,0,0,0,.02,0,3.17.67,6.35,1.31,9.54,1.92l.56-2.95c-3.89-.74-7.82-1.54-11.69-2.38h0Zm23.43,4.48l-.49,2.96c3.94.65,7.89,1.26,11.86,1.83l.42-2.97c-3.92-.56-7.89-1.17-11.79-1.81h0Zm23.62,3.35l-.35,2.98c1.86.22,3.72.43,5.58.62.02,0,.04,0,.05,0,.05,0,.09,0,.14.01.13.01.26.03.39.04,0,0,0,0,0,0,1.92.2,3.85.39,5.78.57l.28-2.99c-3.94-.37-7.93-.79-11.86-1.25h0Zm23.75,2.21l-.21,2.99c2.05.14,4.11.27,6.16.39h0c.06,0,.11,0,.17,0,.02,0,.01,0,.03,0,.05,0,.1,0,.15,0,.02,0,.03,0,.04,0,.05,0,.09,0,.14,0,.03,0,.03,0,.06,0,.04,0,.08,0,.13,0,.03,0,.04,0,.08,0,.04,0,.07,0,.11,0,.03,0,.05,0,.09,0,.03,0,.07,0,.1,0,.03,0,.08,0,.11,0,.03,0,.05,0,.08,0,.05,0,.09,0,.14,0,.02,0,.03,0,.05,0,1.45.08,2.89.15,4.34.21l.14-3c-3.96-.18-7.96-.41-11.91-.68h0Zm23.83,1.08l-.06,3c2.68.06,5.36.09,8.05.11h.02s.1,0,.15,0c.02,0,.02,0,.04,0h.14s.02,0,.02,0c.15,0,.3,0,.45,0,.02,0,.04,0,.05,0,.04,0,.08,0,.11,0,.02,0,.06,0,.08,0,.04,0,.07,0,.11,0,.03,0,.05,0,.08,0,.04,0,.07,0,.11,0,.03,0,.06,0,.09,0,.03,0,.06,0,.09,0,.05,0,.07,0,.12,0,.02,0,.05,0,.07,0,.07,0,.11,0,.18,0,.02,0,.05,0,.07,0,.03,0,.09,0,.12,0,.03,0,.05,0,.08,0,.03,0,.08,0,.12,0h.07s.08,0,.12,0c.03,0,.05,0,.08,0h.12s.04,0,.06,0h.35c.29,0,.58,0,.86,0v-3s-1.02,0-1.02,0c-3.63,0-7.3-.04-10.92-.12h0Zm35.78-.49c-3.95.19-7.96.34-11.92.45l.08,3c.6-.02,1.19-.03,1.79-.05.03,0,.06,0,.1,0,.02,0,.05,0,.07,0,.05,0,.08,0,.13,0,.02,0,.04,0,.06,0,.05,0,.09,0,.14,0,.02,0,.03,0,.05,0,.05,0,.1,0,.15,0,.01,0,.03,0,.04,0,.05,0,.11,0,.16,0,.01,0,.02,0,.03,0,.07,0,.1,0,.17,0,0,0,.02,0,.02,0,.07,0,.11,0,.17,0,0,0,.02,0,.03,0,.07,0,.11,0,.18,0,0,0,.01,0,.02,0,.07,0,.12,0,.19,0,0,0,0,0,0,0,.6-.02,1.2-.04,1.8-.06,0,0,0,0,0,0,.07,0,.12,0,.19,0,0,0,.02,0,.03,0,.07,0,.1,0,.17,0,0,0,.02,0,.03,0,.07,0,.1,0,.17,0,.01,0,.03,0,.04,0,.07,0,.09,0,.16,0,.01,0,.03,0,.04,0,.05,0,.1,0,.15,0,.02,0,.04,0,.05,0,.05,0,.1,0,.15,0,.02,0,.03,0,.05,0,.05,0,.1,0,.15,0,.02,0,.03,0,.05,0,.05,0,.1,0,.15,0,.01,0,.03,0,.04,0,.05,0,.1,0,.15,0,.02,0,.03,0,.05,0,.05,0,.12,0,.17,0,0,0,.02,0,.03,0,.07,0,.13,0,.2,0,0,0,.02,0,.03,0,.05,0,.11,0,.16,0h.09s.07,0,.1,0c.04,0,.07,0,.11,0,.02,0,.06,0,.08,0,.04,0,.07,0,.11,0,.02,0,.06,0,.08,0,.04,0,.07,0,.11,0,.02,0,.06,0,.08,0,.04,0,.08,0,.11,0,.03,0,.04,0,.07,0,.04,0,.08,0,.13,0,.03,0,.03,0,.06,0,.04,0,.08,0,.12,0,.03,0,.04,0,.07,0,.04,0,.08,0,.13,0,.02,0,.04,0,.06,0,.05,0,.09,0,.14,0,.02,0,.03,0,.05,0,.05,0,.1,0,.14,0,.02,0,.02,0,.04,0,.05,0,.1,0,.15,0h.04c.23-.01.46-.02.7-.03.02,0,0,0,.02,0,.04,0,.09,0,.13,0,.03,0,.03,0,.06,0h.12s.06,0,.08,0c.04,0,.07,0,.11,0,.02,0,.07,0,.08,0h.1s.07,0,.1,0c.03,0,.06,0,.08,0,.03,0,.08,0,.11,0,.03,0,.05,0,.08,0,.03,0,.09,0,.13,0,.02,0,.04,0,.06,0,.03,0,.11,0,.14,0,.02,0,.03,0,.05,0,.03,0,.03,0,.06,0l-.15-3h0Zm23.79-1.74c-3.94.38-7.94.72-11.89,1.01l.22,2.99s.04,0,.08,0c.01,0,.02,0,.03,0,.07,0,.11,0,.17-.01,0,0,.01,0,.02,0,3.11-.23,6.2-.49,9.29-.77,0,0,.01,0,.01,0,.07,0,.11,0,.17-.02.01,0,.03,0,.04,0,.03,0,.11-.01.15-.01.02,0,.04,0,.06,0,.03,0,.09,0,.13-.01.03,0,.05,0,.08,0,.03,0,.08,0,.11-.01.03,0,.06,0,.09,0,.03,0,.06,0,.1,0,.04,0,.07,0,.11-.01.02,0,.05,0,.07,0,.04,0,.09,0,.13-.01.02,0,.02,0,.03,0,.37-.03.73-.07,1.1-.11l-.29-2.99h0Zm23.68-2.87c-3.91.57-7.89,1.1-11.82,1.58l.36,2.98c3.97-.48,7.96-1.02,11.89-1.59l-.43-2.97h0Zm23.51-4.01c-3.88.76-7.83,1.48-11.73,2.15l.5,2.96c3.95-.67,7.89-1.39,11.8-2.16l-.58-2.94h0Zm23.29-5.14c-3.84.95-7.75,1.86-11.62,2.71l.65,2.93c1.88-.41,3.75-.84,5.61-1.27.03,0,.03,0,.07-.02.03,0,.05-.01.08-.02.05-.01.07-.02.11-.03.02,0,.04,0,.06-.01.05-.01.08-.02.13-.03.02,0,.04,0,.06-.01.05-.01.08-.02.13-.03.02,0,.04,0,.06-.01.05-.01.09-.02.13-.03.01,0,.03,0,.04-.01.05-.01.1-.02.15-.03.01,0,.03,0,.04,0,.05-.01.1-.02.15-.03.01,0,.03,0,.04-.01.05-.01.09-.02.14-.03.02,0,.03,0,.05-.01.05-.01.1-.02.14-.03.01,0,.02,0,.04,0,.05-.01.1-.02.15-.04.01,0,.03,0,.04,0,.05-.01.1-.02.14-.03.02,0,.03,0,.05-.01.05-.01.09-.02.14-.03.02,0,.04,0,.05-.01.05-.01.09-.02.14-.03.02,0,.03,0,.05-.01.05-.01.09-.02.14-.03.01,0,.03,0,.05-.01.05-.01.09-.02.14-.03h.05s.09-.03.14-.04c.02,0,.03,0,.05-.01.05-.01.09-.02.14-.03.02,0,.03,0,.05-.01.05-.01.09-.02.14-.03.02,0,.04,0,.05-.01.05-.01.08-.02.13-.03.02,0,.04-.01.06-.02.05-.01.07-.02.11-.03.03,0,.05-.01.08-.02.05-.01.06-.01.11-.03.03,0,.05-.01.08-.02.05-.01.06-.01.1-.03.03,0,.06-.01.08-.02.03,0,.06-.01.09-.02.03,0,.07-.02.1-.02.03,0,.03,0,.07-.02.04-.01.08-.02.13-.03.02,0,0,0,.02,0,.05-.01.11-.03.16-.04h0c.48-.12.97-.24,1.45-.36l-.72-2.91h0Zm23.02-6.26c-3.79,1.13-7.65,2.23-11.47,3.27l.79,2.89c.31-.08.63-.17.94-.26.01,0,.03,0,.04-.01.05-.01.09-.02.14-.04.03,0,.06-.02.09-.02.03,0,.05-.01.09-.02.04-.01.08-.02.12-.03.02,0,.04-.01.06-.02.05-.01.1-.03.15-.04.02,0,0,0,.02,0,3.32-.91,6.62-1.86,9.91-2.84l-.86-2.88h0Zm22.69-7.36c-3.73,1.31-7.54,2.6-11.3,3.82l.93,2.85h.04s.04-.03.06-.03c.05-.01.08-.03.13-.04.01,0,.02,0,.04-.01.06-.02.09-.03.15-.05,0,0,.01,0,.02,0,3.04-.99,6.04-2,9.06-3.05.01,0,.02,0,.03-.01.05-.02.09-.03.14-.05.02,0,.03-.01.05-.02.03-.01.08-.03.11-.04.03,0,.05-.02.08-.03.03-.01.06-.02.09-.03.04-.01.08-.03.11-.04.02,0,.03,0,.04-.02.05-.02.1-.04.15-.05h0c.35-.13.7-.25,1.06-.37l-.99-2.83h0Zm22.31-8.45c-3.67,1.49-7.4,2.96-11.1,4.36l1.06,2.81c.93-.35,1.86-.71,2.78-1.06h.03s.1-.05.15-.07h.03s.09-.05.14-.06c.01,0,.03-.01.05-.02.04-.02.09-.03.13-.05.01,0,.03-.01.04-.02.04-.02.08-.03.12-.05.01,0,.04-.02.06-.02.04-.01.07-.03.11-.04.01,0,.05-.02.06-.02.04-.01.07-.03.11-.04.01,0,.06-.02.07-.03.03-.01.07-.03.1-.04.01,0,.06-.02.07-.03.03-.01.06-.02.09-.04l.09-.03s.06-.02.08-.03c.03-.01.06-.02.09-.04.03-.01.06-.02.08-.03.03-.01.07-.03.1-.04.03-.01.05-.02.08-.03.03-.01.07-.03.09-.04.03-.01.05-.02.08-.03.03-.01.07-.03.1-.04.02,0,.04-.02.07-.03.03-.01.08-.03.11-.04.02,0,.04-.02.06-.03.03-.01.09-.03.12-.05.02,0,.04-.01.06-.02.03-.01.09-.04.12-.05.02,0,.03-.01.05-.02.04-.02.09-.03.13-.05.01,0,.03-.01.04-.02.06-.02.08-.03.14-.05.01,0,.03-.01.04-.02.06-.02.08-.03.14-.05.01,0,.03-.01.04-.02.06-.02.08-.03.14-.05.01,0,.03-.01.04-.02.06-.02.09-.03.15-.06,0,0,.02,0,.02,0,.06-.02.1-.04.16-.06,0,0,0,0,0,0,1.54-.61,3.06-1.22,4.59-1.84l-1.13-2.78h0Zm21.87-9.52c-3.59,1.67-7.25,3.31-10.88,4.89l1.2,2.75c2.85-1.24,5.67-2.5,8.49-3.79,0,0,0,0,0,0,.06-.03.1-.05.16-.07,0,0,.01,0,.02,0,.04-.02.09-.04.14-.06.02,0,.03-.01.04-.02.04-.02.07-.03.11-.05.02-.01.05-.02.07-.03.03-.01.05-.02.08-.04.03-.02.07-.03.1-.05.01,0,.04-.02.05-.02l.12-.06s.02-.01.04-.02c.05-.02.09-.04.14-.07h.01c.45-.21.9-.42,1.35-.63l-1.26-2.72h0Zm21.39-10.56c-3.51,1.84-7.08,3.66-10.63,5.41l1.33,2.69c3.6-1.78,7.15-3.58,10.69-5.44l-1.39-2.66h0Zm20.85-11.58c-3.41,2-6.9,3.99-10.36,5.92l1.46,2.62c1.2-.67,2.4-1.34,3.6-2.02h0c.05-.03.1-.06.16-.09h.01s.1-.06.15-.09c.01,0,.02,0,.03-.02.04-.02.09-.05.13-.07.01,0,.03-.02.04-.02.04-.02.08-.05.12-.07.01,0,.04-.02.06-.03.03-.02.07-.04.1-.06.01,0,.06-.03.07-.04.03-.02.06-.03.09-.05.04-.02.05-.03.09-.05.02-.01.05-.03.07-.04.04-.02.07-.04.11-.06.02-.01.04-.02.05-.03.04-.02.09-.05.13-.07.01,0,.02-.01.03-.02.05-.03.09-.05.14-.08,0,0,.01,0,.02-.01,1.75-1,3.48-2,5.22-3.02l-1.52-2.59h0Zm20.28-12.57c-3.31,2.17-6.7,4.32-10.06,6.41l1.58,2.55c3.39-2.1,6.79-4.27,10.12-6.44l-1.64-2.51h0Zm19.65-13.53c-3.21,2.32-6.48,4.64-9.74,6.88l1.7,2.47c3.3-2.27,6.56-4.58,9.8-6.92l-1.76-2.43h0Zm18.98-14.45c-3.09,2.47-6.26,4.94-9.4,7.34l1.82,2.39c3.17-2.42,6.35-4.89,9.46-7.38l-1.87-2.34h0Zm18.27-15.34c-2.97,2.62-6.01,5.23-9.04,7.78l1.93,2.3c2.93-2.46,5.83-4.95,8.71-7.48,0,0,0,0,0,0,.05-.04.09-.08.14-.12,0,0,0,0,.01-.01.05-.04.08-.07.12-.11,0,0,.02-.02.03-.03.02-.02.06-.05.08-.07l-1.98-2.25h0Zm17.52-16.19c-2.84,2.76-5.76,5.51-8.66,8.2l2.04,2.2c1.25-1.16,2.49-2.31,3.73-3.48,0,0,0,0,.01-.01.05-.04.08-.07.12-.12,0,0,.02-.02.02-.02.03-.03.07-.07.1-.1.02-.02.04-.04.06-.05.03-.03.04-.04.08-.07.03-.02.05-.05.08-.07.01-.01.04-.04.05-.05.03-.03.07-.06.1-.09.01-.01.02-.02.04-.03,1.45-1.37,2.89-2.75,4.32-4.14h0s-2.09-2.16-2.09-2.16h0Zm16.72-17.01c-2.71,2.89-5.49,5.78-8.26,8.61l2.14,2.1c2.8-2.85,5.57-5.73,8.3-8.65h0s-2.19-2.06-2.19-2.06h0Zm15.89-17.79c-2.57,3.01-5.2,6.04-7.84,8.99l2.24,2c2.67-2.98,5.29-6,7.89-9.04l-2.28-1.94h0Zm15.03-18.53c-2.42,3.13-4.91,6.28-7.4,9.35l2.33,1.89c2.52-3.11,5-6.24,7.45-9.41l-2.37-1.83h0Zm14.12-19.22c-2.27,3.24-4.6,6.51-6.95,9.7l2.42,1.78c1.23-1.68,2.46-3.38,3.68-5.07,0,0,0,0,0-.01.04-.05.07-.09.1-.14,0,0,0,0,0,0,.04-.05.07-.09.1-.14,0,0,0,0,0-.01.04-.05.06-.09.1-.14,0,0,0,0,0-.01.04-.05.06-.08.1-.14,0,0,.01-.01.02-.02.04-.05.06-.08.09-.13,0,0,0-.01.01-.02.04-.05.06-.08.1-.13,0,0,0-.01.01-.02.04-.05.06-.09.1-.14,0,0,0-.01.01-.02.04-.05.06-.08.09-.13,0,0,.01-.02.02-.03.04-.05.05-.08.09-.13,0,0,.01-.02.02-.02.04-.05.06-.08.09-.13,0,0,0-.01.01-.02.04-.05.06-.09.1-.14,0,0,0,0,0-.01.04-.05.06-.09.1-.14,0,0,0-.01.01-.02.04-.05.06-.09.1-.14,0,0,0,0,0-.01.04-.05.06-.09.1-.14,0,0,0,0,0-.01.04-.05.06-.09.1-.14,0,0,0,0,0-.01.04-.05.06-.08.09-.13,0,0,.01-.02.02-.02.04-.05.06-.08.1-.14,0,0,0,0,0-.01.04-.05.06-.09.1-.14,0,0,0,0,0-.01.04-.05.06-.09.1-.14,0,0,0-.01.01-.02.04-.05.06-.08.09-.13,0,0,.01-.02.02-.02.04-.05.06-.08.09-.13,0,0,0-.01.01-.02.04-.05.06-.09.1-.14,0,0,0-.01.01-.02.04-.05.06-.08.09-.13l.02-.02c.04-.05.05-.07.09-.12,0-.01.02-.02.03-.04.04-.05.05-.07.09-.12,0,0,.01-.02.02-.03.04-.05.05-.07.09-.13,0-.01.01-.02.02-.03.04-.05.05-.07.09-.12,0,0,.01-.02.02-.03.03-.04.06-.08.08-.12,0-.01.02-.03.03-.04.02-.03.06-.09.08-.11,0-.01.02-.03.03-.04.02-.03.06-.08.08-.11.01-.02.02-.03.03-.05,0-.01.03-.04.04-.05l-2.46-1.72h0Zm13.19-19.88c-2.11,3.35-4.29,6.72-6.47,10.02l2.5,1.66s.04-.06.06-.09c0-.01.01-.02.02-.03.03-.04.06-.09.08-.13,0,0,.01-.02.02-.03.03-.05.06-.09.09-.14,0,0,0,0,0,0,2.11-3.19,4.19-6.41,6.23-9.65l-2.54-1.6h0Zm12.22-20.49c-1.94,3.45-3.96,6.92-5.99,10.32l2.58,1.54c1.46-2.44,2.9-4.9,4.31-7.37,0,0,0,0,0,0,.03-.05.06-.1.09-.15,0,0,0-.01.01-.02.03-.05.05-.09.08-.14,0,0,0-.01.01-.02.03-.05.05-.08.08-.14,0-.01.01-.02.02-.03.02-.04.05-.09.07-.13,0-.01.02-.03.02-.04.02-.04.04-.07.06-.11.01-.02.02-.04.04-.06.02-.03.04-.07.06-.1.01-.02.03-.04.04-.07.02-.03.04-.06.05-.09.02-.03.03-.06.05-.08.02-.03.03-.04.04-.07.02-.03.04-.06.05-.1,0-.01.03-.05.03-.06.02-.04.04-.07.06-.11,0-.01.02-.03.02-.04.02-.04.05-.08.07-.12,0-.01.01-.02.02-.04.03-.05.05-.09.08-.14,0-.01,0,0,0-.01.21-.38.43-.76.64-1.14l-2.61-1.47h0Zm11.22-21.05c-1.78,3.54-3.62,7.1-5.48,10.59l2.65,1.41c.41-.77.82-1.54,1.22-2.31h0c.03-.06.05-.11.08-.16v-.02s.06-.09.08-.14c0-.01,0-.02.02-.03.02-.04.05-.09.07-.13,0-.01.01-.02.02-.03.02-.04.04-.08.07-.13,0-.01.01-.03.02-.04.02-.04.04-.08.06-.12,0-.01.02-.03.02-.04.02-.04.04-.08.06-.11,0-.01.02-.04.03-.06.02-.04.04-.07.06-.11,0-.01.02-.05.03-.06.02-.03.03-.07.05-.1,0-.01.03-.06.04-.07.02-.03.03-.06.05-.09.01-.03.03-.05.04-.08.01-.03.03-.05.04-.08.01-.03.04-.07.05-.1.01-.02.02-.04.03-.07.01-.03.04-.07.05-.1.01-.02.02-.04.03-.07.01-.03.04-.08.06-.11,0-.02.02-.04.03-.06.01-.03.04-.08.06-.11,0-.02.02-.03.03-.05.02-.04.04-.08.06-.12,0-.01.01-.02.02-.03.03-.06.04-.08.07-.14,0,0,0-.02.01-.03.03-.06.05-.09.08-.15,0,0,0,0,0-.01.03-.06.05-.1.08-.15,0,0,0,0,0-.01.78-1.51,1.55-3.01,2.32-4.53,0,0,0,0,0-.01.02-.04.05-.1.07-.14,0-.01.01-.02.02-.03.02-.04.04-.09.07-.13,0-.01.01-.03.02-.04.02-.04.04-.07.06-.11.01-.02.02-.04.03-.06.02-.04.03-.05.05-.09.01-.03.03-.05.04-.08,0-.01.03-.06.04-.08.02-.03.03-.06.05-.1v-.02s-2.67-1.35-2.67-1.35h0Zm10.19-21.57c-1.6,3.62-3.28,7.27-4.97,10.84l2.71,1.28c1.71-3.61,3.37-7.25,5-10.91l-2.74-1.22h0Zm9.14-22.03c-1.43,3.69-2.92,7.42-4.44,11.07l2.77,1.15c.38-.92.76-1.84,1.13-2.76,0-.01,0,0,0-.02.02-.05.04-.09.06-.14,0-.01.01-.03.02-.05.02-.04.03-.07.05-.11.01-.03.02-.04.03-.07.01-.03.02-.06.04-.09.01-.03.03-.06.04-.09,0-.02.02-.04.03-.07.02-.04.03-.08.05-.12,0-.01.01-.03.02-.04.02-.04.04-.1.06-.14,0,0,0-.02.01-.03.02-.06.04-.1.06-.16,0,0,0,0,0-.01.97-2.4,1.93-4.82,2.87-7.24l-2.8-1.08h0Zm8.07-22.45c-1.25,3.76-2.56,7.55-3.9,11.27l2.82,1.01c.38-1.06.76-2.12,1.13-3.18h0c.02-.06.04-.12.06-.17h0c.02-.07.04-.12.06-.17v-.02c.03-.05.04-.11.06-.16h0c.02-.07.04-.12.06-.17v-.03s.04-.1.06-.14c0-.02,0-.03.01-.04.02-.04.03-.09.05-.13,0-.02.01-.04.02-.05.01-.04.03-.08.04-.13,0-.02.01-.03.02-.04.02-.04.03-.09.05-.13.01-.03.01-.03.02-.06.01-.04.03-.08.04-.12.01-.03.01-.04.02-.07.01-.04.02-.07.04-.11.01-.03.01-.04.03-.07.01-.04.03-.07.04-.11,0-.02.01-.04.02-.06.01-.04.03-.08.04-.12,0-.02.01-.04.02-.06.01-.04.03-.08.04-.12,0-.02,0-.01,0-.03.02-.05.03-.1.05-.15h0c.08-.24.16-.47.24-.7,0-.02,0,0,0-.01.04-.11.08-.23.12-.34,0-.02,0,0,0-.01.04-.12.08-.23.12-.35h0c.49-1.42.97-2.84,1.44-4.27l-2.85-.95h0Zm6.97-22.81c-1.06,3.81-2.19,7.66-3.35,11.45l2.87.88c.15-.51.3-.99.45-1.49,0,0,0,0,0-.01.02-.06.03-.1.05-.16,0-.01,0-.03.01-.04,0-.03.03-.1.04-.13,0-.02.01-.04.02-.06,0-.03.02-.08.03-.11,0-.03.02-.05.02-.08,0-.03.02-.07.03-.1,0-.03.02-.06.03-.09,0-.03.02-.05.02-.08.01-.04.02-.07.03-.11,0-.03.01-.04.02-.07.01-.04.02-.08.04-.12,0-.02.01-.04.02-.05.01-.04.03-.09.04-.13,0-.02,0-.03.01-.04.01-.05.03-.1.04-.15,0-.02,0,0,0-.02.02-.05.03-.11.05-.16h0c.5-1.68.99-3.36,1.47-5.04h0c.02-.06.03-.11.05-.17,0-.02,0-.01,0-.03.01-.05.03-.1.04-.14,0-.02,0-.03.01-.04.01-.05.03-.09.04-.14,0-.02,0-.03.01-.05.01-.04.02-.08.04-.13,0-.03,0-.03.02-.06.01-.04.02-.08.03-.11,0-.03.01-.04.02-.08,0-.03.02-.06.03-.1,0-.03.02-.07.03-.1,0-.03.02-.05.02-.08,0-.03.02-.09.03-.12,0-.02.01-.04.02-.06.01-.05.03-.09.04-.14,0-.01,0-.02,0-.04.02-.06.03-.11.05-.17,0,0,0,0,0,0,.14-.51.28-1.01.43-1.52l-2.89-.81h0Zm5.86-23.12c-.88,3.86-1.82,7.76-2.79,11.6l2.91.74c.09-.36.18-.72.27-1.09,0-.02,0-.01,0-.03.01-.05.03-.1.04-.16,0-.02,0-.02,0-.04.01-.05.02-.09.04-.14.02-.06.02-.1.04-.16,0,0,0-.01,0-.02.56-2.25,1.11-4.51,1.64-6.77,0-.02,0-.03.01-.05.01-.05.02-.08.03-.13,0-.03.02-.07.02-.1,0-.02.01-.06.02-.07.01-.05.02-.1.04-.15v-.02c.22-.91.43-1.83.64-2.74l-2.92-.67h0Zm4.74-23.38c-.69,3.9-1.44,7.84-2.23,11.72l2.94.6c.07-.36.15-.72.22-1.08v-.03s.02-.09.03-.13c0-.02.01-.05.01-.07,0-.03.01-.06.02-.1,0-.05.01-.06.02-.11,0-.02,0-.04.01-.06,0-.05.02-.08.03-.13,0-.02,0-.03,0-.05,0-.05.02-.1.03-.15,0,0,0-.02,0-.03.01-.06.02-.11.03-.17,0,0,0,0,0-.01.64-3.22,1.24-6.44,1.82-9.68l-2.95-.52h0Zm3.6-23.58c-.5,3.93-1.06,7.9-1.66,11.81l2.97.45c.38-2.51.75-5.02,1.09-7.55,0-.03,0-.03,0-.06,0-.03,0-.06.01-.1,0-.03,0-.07.01-.1,0-.02,0-.05.01-.07,0-.05.01-.08.02-.12,0-.02,0-.03,0-.05,0-.05.01-.1.02-.15,0-.01,0-.02,0-.04,0-.05.02-.11.02-.16,0,0,0-.01,0-.02,0-.07.01-.11.02-.18,0,0,0-.01,0-.02.15-1.09.29-2.18.43-3.28l-2.98-.38h0Zm2.47-23.73c-.32,3.95-.68,7.94-1.09,11.88l2.98.31c.33-3.18.63-6.35.9-9.55,0,0,0,0,0,0,0-.07.01-.12.02-.19,0-.01,0-.03,0-.04,0-.03,0-.11.01-.14,0-.03,0-.05,0-.08,0-.03,0-.08,0-.11,0-.03,0-.06,0-.09,0-.03,0-.06,0-.09,0-.04,0-.08,0-.12,0-.03,0-.03,0-.07,0-.05,0-.1.01-.14v-.03c0-.06.01-.11.02-.17h0c.03-.38.06-.76.09-1.13l-2.99-.24h0Zm1.34-23.82c-.13,3.96-.31,7.97-.53,11.92l3,.17c.09-1.61.17-3.23.25-4.85,0-.02,0,0,0-.02,0-.05,0-.11,0-.16,0-.02,0-.02,0-.03,0-.05,0-.1,0-.15,0-.02,0-.03,0-.05,0-.04,0-.09,0-.13,0-.03,0-.03,0-.07,0-.04,0-.08,0-.12,0-.03,0-.05,0-.08,0-.04,0-.07,0-.11,0-.03,0-.05,0-.09,0-.04,0-.07,0-.11,0-.03,0-.06,0-.1,0-.03,0-.06,0-.09,0-.05,0-.07,0-.12,0-.02,0-.05,0-.07,0-.07,0-.1,0-.16,0,0,0-.02,0-.03.01-.33.03-.66.04-1,0,0,0,0,0-.01,0-.07,0-.12,0-.19,0,0,0,0,0,0,0-.07,0-.12,0-.19,0,0,0,0,0,0,0-.07,0-.13,0-.19h0c0-.07,0-.13,0-.2,0,0,0,0,0,0,.05-1.22.09-2.43.13-3.65l-3-.1h0Zm3.21-23.92l-3,.04c.04,2.48.06,5.01.06,7.49,0,1.49,0,2.97-.02,4.45l3,.03c.01-1.16.02-2.3.02-3.47h0c0-.07,0-.13,0-.2v-.02c0-.07,0-.1,0-.17v-.03c0-.07,0-.12,0-.19v-.02c0-.07,0-.09,0-.16v-.23h0v-.22s0-.04,0-.07c0-.05,0-.1,0-.15v-.08s0-.1,0-.15c0-.03,0-.04,0-.08,0-.05,0-.1,0-.16,0-.02,0-.05,0-.07,0-.06,0-.13,0-.19v-.03c0-.23,0-.47,0-.7h0c0-1.89-.02-3.77-.05-5.65h0Zm-.92-23.98l-2.99.19c.25,3.95.45,7.96.6,11.91l3-.12c-.15-4.01-.36-8-.6-11.98h0Zm-2.06-23.91l-2.98.33c.43,3.93.83,7.93,1.17,11.87l2.99-.26s0-.06,0-.09c0-.02,0-.04,0-.07,0-.05,0-.07-.01-.12,0-.02,0-.05,0-.07,0-.05,0-.06,0-.11,0-.03,0-.05,0-.08,0-.05,0-.06,0-.11,0-.03,0-.06,0-.08,0-.03,0-.07,0-.1,0-.03,0-.06,0-.09,0-.02,0-.02,0-.04-.01-.16-.03-.32-.04-.48,0-.02,0-.03,0-.05,0-.04,0-.09-.01-.13,0-.03,0-.03,0-.06,0-.04,0-.08-.01-.13,0-.02,0-.05,0-.07,0-.04,0-.09-.01-.13,0-.02,0-.04,0-.06,0-.04,0-.09-.01-.13,0-.02,0-.05,0-.07,0-.04,0-.08-.01-.12,0-.02,0-.05,0-.07,0-.04,0-.08-.01-.12,0-.03,0-.04,0-.07,0-.04,0-.08-.01-.12,0-.03,0-.03,0-.07,0-.04,0-.08-.01-.12,0-.03,0-.03,0-.07,0-.04,0-.08-.01-.12,0-.02,0-.05,0-.07,0-.04,0-.08-.01-.13,0-.02,0-.05,0-.06v-.13s-.02-.04-.02-.06c0-.04,0-.09-.01-.13,0-.02,0-.05,0-.06,0-.04,0-.08-.01-.13,0-.02,0-.04,0-.06,0-.04,0-.09-.01-.13,0-.03,0-.03,0-.06,0-.04,0-.09-.01-.13,0-.02,0-.02,0-.04-.01-.16-.03-.31-.04-.47,0-.03,0-.03,0-.06,0-.03,0-.07,0-.1,0-.03,0-.06,0-.09,0-.03,0-.06,0-.09,0-.03,0-.07,0-.1,0-.03,0-.06,0-.09,0-.05,0-.06-.01-.11,0-.03,0-.05,0-.08,0-.05,0-.07-.01-.12,0-.03,0-.05,0-.08,0-.03,0-.09-.01-.12,0-.02,0-.05,0-.07,0-.03,0-.09-.01-.13,0-.02,0-.04,0-.07,0-.03,0-.1-.01-.13,0-.02,0-.04,0-.06,0-.03-.01-.11-.01-.14,0-.02,0-.04,0-.05,0-.07,0-.08-.01-.15,0-.01,0-.03,0-.04,0-.07,0-.09-.02-.16,0-.01,0-.03,0-.04,0-.07-.01-.1-.02-.17,0,0,0-.01,0-.02,0-.07-.01-.12-.02-.19,0,0,0,0,0,0-.16-1.58-.32-3.13-.5-4.7h0Zm-3.2-23.78l-2.96.47c.62,3.91,1.2,7.88,1.73,11.8l2.97-.4c-.53-3.97-1.12-7.93-1.74-11.87h0Zm-4.34-23.6l-2.94.61c.81,3.87,1.58,7.81,2.3,11.7l2.95-.54v-.03c-.52-2.82-1.07-5.64-1.63-8.44h0c-.01-.06-.02-.12-.04-.18,0-.02,0,0,0-.02-.01-.05-.02-.1-.03-.16,0-.02,0-.03,0-.05,0-.05-.02-.09-.03-.14,0-.02,0-.04-.01-.06,0-.04-.02-.08-.02-.12,0-.02-.01-.07-.02-.08,0-.03-.01-.07-.02-.1,0-.05-.01-.07-.02-.12,0-.02,0-.04-.01-.06-.01-.06-.02-.09-.03-.16v-.03c-.15-.68-.28-1.36-.43-2.04h0Zm-5.48-23.36l-2.9.75c1,3.83,1.96,7.73,2.86,11.58l2.92-.68c-.74-3.16-1.51-6.32-2.31-9.46,0-.02,0,0,0-.02-.01-.04-.02-.08-.03-.12,0-.03,0-.04-.02-.07,0-.03-.01-.05-.02-.08-.01-.05-.02-.07-.03-.12,0-.01,0-.02,0-.04-.01-.05-.03-.11-.04-.16,0,0,0,0,0,0-.14-.53-.27-1.06-.41-1.59h0Zm-6.6-23.07l-2.86.89c1.18,3.78,2.33,7.62,3.42,11.43l2.88-.82h0c-.02-.07-.03-.12-.05-.17h0c-.58-2.05-1.18-4.09-1.79-6.12h0c-.01-.06-.03-.11-.04-.15,0-.02,0-.03-.01-.05-.01-.04-.02-.08-.04-.12,0-.02-.02-.05-.02-.07,0-.03-.02-.06-.03-.09-.01-.05-.02-.05-.03-.1,0-.02-.01-.05-.02-.07-.01-.05-.02-.07-.04-.12,0-.02,0-.03-.01-.05-.01-.05-.03-.1-.04-.14,0-.01,0-.02,0-.03-.02-.06-.03-.1-.05-.16,0,0,0,0,0,0-.41-1.35-.83-2.71-1.25-4.05h0Zm-7.71-22.73l-2.82,1.03c1.36,3.72,2.7,7.5,3.97,11.25l2.84-.96c-.65-1.91-1.3-3.78-1.96-5.68-.66-1.89-1.34-3.77-2.03-5.64h0Zm-8.8-22.33l-2.76,1.17c1.54,3.65,3.06,7.36,4.51,11.04l2.79-1.1c-1.47-3.73-2.98-7.43-4.53-11.11h0Zm-9.86-21.88l-2.7,1.3c1.71,3.57,3.41,7.21,5.03,10.81l2.73-1.23s0,0,0-.02c-.02-.05-.04-.09-.06-.14,0-.01-.02-.04-.02-.05-.02-.04-.03-.07-.05-.11,0-.01-.03-.06-.04-.08-.01-.03-.03-.06-.04-.09-.01-.03-.04-.08-.05-.11,0-.02-.02-.04-.03-.06-.02-.04-.04-.09-.06-.14,0-.01-.01-.02-.02-.03-.78-1.73-1.57-3.45-2.38-5.17,0,0,0,0,0,0-.05-.11-.1-.22-.16-.34,0,0,0-.01,0-.02-.03-.06-.05-.1-.07-.16,0,0,0-.02-.01-.03-.02-.04-.05-.1-.07-.14,0-.02-.02-.03-.02-.05-.02-.04-.04-.08-.06-.12,0-.02-.01-.03-.02-.05-.02-.04-.04-.08-.06-.12-.01-.02-.02-.05-.03-.07-.02-.04-.03-.06-.05-.1-.01-.03-.02-.05-.04-.08-.01-.03-.03-.06-.04-.08-.01-.03-.03-.06-.04-.09-.01-.03-.02-.05-.04-.08-.01-.03-.03-.06-.04-.09,0-.01-.03-.06-.04-.08-.01-.03-.03-.06-.04-.09,0-.01-.03-.06-.04-.08-.02-.03-.03-.07-.05-.1,0-.01-.03-.05-.03-.07-.02-.03-.03-.07-.05-.1,0-.01-.03-.06-.03-.07-.02-.04-.03-.07-.05-.11,0-.01-.02-.04-.03-.06-.02-.04-.04-.07-.05-.11,0-.01-.02-.05-.03-.06-.02-.04-.04-.08-.06-.12,0-.01-.01-.03-.02-.04-.02-.04-.04-.08-.06-.12,0-.01-.02-.04-.02-.05-.02-.04-.04-.08-.06-.12,0-.01-.02-.04-.02-.05-.02-.04-.04-.08-.05-.11,0-.01-.02-.05-.03-.06-.02-.04-.03-.07-.05-.11,0-.01-.02-.05-.03-.06-.02-.03-.03-.07-.05-.1-.01-.03-.02-.05-.04-.07-.01-.03-.03-.06-.04-.09-.01-.03-.02-.05-.04-.08-.01-.03-.03-.06-.04-.09-.01-.03-.03-.06-.04-.09-.01-.03-.03-.05-.04-.08-.01-.03-.03-.06-.04-.09-.01-.03-.02-.05-.04-.08-.01-.03-.03-.07-.05-.1-.01-.02-.02-.04-.03-.06-.01-.03-.04-.08-.05-.11,0-.02-.02-.04-.03-.05-.02-.04-.04-.08-.06-.12,0-.01-.01-.03-.02-.04-.02-.04-.04-.09-.06-.13,0,0,0-.02-.01-.03-.01-.03-.02-.05-.04-.08h0Zm-10.91-21.38l-2.64,1.43c1.88,3.48,3.75,7.03,5.55,10.56l2.67-1.36c-1.42-2.79-2.87-5.56-4.34-8.31h0c-.03-.06-.06-.11-.09-.16h0c-.03-.06-.05-.11-.08-.16v-.02s-.06-.09-.09-.14c0-.01-.01-.02-.02-.04-.02-.04-.04-.08-.06-.11-.01-.03-.02-.04-.04-.07-.02-.03-.03-.06-.05-.09-.01-.03-.03-.06-.05-.09-.01-.02-.02-.04-.03-.06-.02-.03-.05-.09-.06-.12,0-.01-.01-.03-.02-.04-.03-.06-.05-.09-.08-.14,0,0,0,0,0-.01-.19-.35-.38-.7-.57-1.05h0Zm-11.92-20.83l-2.57,1.55c2.05,3.39,4.08,6.85,6.05,10.28l2.6-1.49c-.15-.27-.31-.54-.46-.81h0s-.05-.09-.08-.14c0-.01-.01-.02-.02-.04-.02-.03-.04-.07-.06-.11-.02-.03-.02-.03-.04-.06-.01-.02-.03-.05-.04-.07-.02-.04-.04-.06-.06-.1,0-.01-.01-.02-.02-.03-.02-.04-.05-.09-.08-.13,0,0,0-.02-.01-.02-1.6-2.78-3.22-5.52-4.87-8.26,0,0,0,0,0,0-.03-.05-.06-.09-.09-.15,0,0,0-.02-.01-.02-.03-.05-.05-.08-.08-.13,0-.01-.01-.02-.02-.03-.03-.05-.04-.07-.07-.12,0-.01-.02-.03-.03-.04,0-.01-.03-.05-.04-.06h0Zm-12.91-20.23l-2.49,1.67c2.21,3.28,4.41,6.64,6.54,9.98l2.53-1.61c-.3-.46-.58-.91-.88-1.38,0,0,0-.02-.01-.02-.03-.04-.04-.07-.07-.11-.01-.02-.03-.04-.04-.06-.02-.03-.04-.06-.05-.08-.02-.03-.03-.05-.05-.08-.02-.03-.02-.03-.04-.06-.02-.03-.04-.07-.07-.1,0-.01-.01-.02-.02-.03-.94-1.46-1.89-2.92-2.85-4.37-.83-1.26-1.66-2.5-2.5-3.75h0Zm-13.86-19.59l-2.41,1.79c2.36,3.18,4.72,6.42,7.01,9.65l2.45-1.73h0s-.05-.08-.08-.11c-.02-.03-.02-.03-.04-.06-.02-.02-.04-.05-.05-.07-.03-.04-.03-.05-.06-.08-.01-.02-.02-.03-.03-.05-.03-.04-.05-.08-.08-.11,0,0,0,0,0-.01-2.2-3.1-4.42-6.16-6.69-9.21h0Zm-14.78-18.9l-2.32,1.9c2.51,3.06,5.02,6.19,7.46,9.31l2.36-1.85c-1.56-2-3.13-3.97-4.72-5.94,0,0,0,0,0,0-.04-.05-.07-.08-.11-.13,0,0-.01-.02-.02-.02-.03-.04-.06-.08-.09-.11-.01-.02-.02-.03-.04-.05-.02-.02-.06-.07-.08-.09-.01-.02-.03-.04-.04-.06-.02-.02-.05-.06-.07-.09-.02-.02-.04-.05-.06-.07-.02-.02-.04-.04-.06-.07-.02-.03-.05-.06-.07-.08-.02-.02-.03-.03-.04-.06-.03-.03-.05-.07-.08-.1,0-.01-.02-.03-.03-.04-.03-.04-.06-.07-.09-.11,0-.01-.02-.02-.03-.03-.03-.04-.07-.08-.1-.12v-.02c-.05-.05-.09-.09-.12-.14h0c-.55-.68-1.1-1.36-1.66-2.03h0Zm-15.67-18.18l-2.22,2.01c2.66,2.94,5.31,5.94,7.9,8.94l2.27-1.96c-.12-.14-.24-.28-.36-.42h0s-.07-.09-.11-.13l-.03-.03s-.06-.07-.09-.1c-.02-.02-.02-.02-.04-.04-.03-.03-.05-.06-.08-.09-.02-.02-.03-.03-.05-.06-.02-.03-.05-.05-.07-.08-.02-.02-.05-.05-.07-.08-.02-.02-.03-.04-.05-.05-.03-.04-.06-.07-.09-.1,0-.01-.02-.02-.03-.03-.04-.05-.06-.07-.1-.12,0,0,0-.01-.01-.02-.04-.05-.07-.08-.11-.13,0,0,0,0,0,0-1.48-1.7-2.95-3.38-4.45-5.05,0,0-.01-.01-.02-.02-.04-.05-.06-.07-.1-.11,0,0-.02-.02-.03-.03-.03-.03-.06-.07-.09-.1-.02-.02-.03-.04-.05-.05-.02-.02-.04-.05-.06-.07-.02-.03-.05-.05-.07-.08-.02-.02-.02-.03-.04-.05-.03-.03-.06-.07-.09-.1l-.02-.02s-.07-.08-.11-.13h0c-.5-.56-1-1.12-1.5-1.67h0Zm-16.52-17.41l-2.13,2.12c2.79,2.81,5.59,5.68,8.31,8.55l2.18-2.06c-1.44-1.52-2.88-3.02-4.34-4.52,0,0,0,0-.01-.01-.04-.04-.07-.07-.11-.11,0,0-.02-.02-.03-.03-.03-.03-.07-.07-.1-.1-.01-.01-.02-.02-.04-.04-.02-.02-.07-.07-.09-.09-.02-.02-.03-.03-.05-.05-.02-.02-.05-.05-.07-.08-.02-.02-.04-.05-.07-.07-.02-.02-.04-.04-.06-.06-.03-.03-.05-.06-.08-.08-.02-.02-.02-.02-.05-.05-.03-.03-.06-.06-.09-.09-.02-.02-.02-.02-.04-.05-.03-.03-.06-.06-.09-.09-.01-.01-.02-.02-.03-.03-.03-.04-.07-.07-.1-.11l-.02-.02s-.08-.08-.12-.12h0c-.92-.94-1.84-1.87-2.77-2.8h0Zm-17.33-16.6l-2.02,2.22c2.92,2.67,5.85,5.41,8.71,8.15l2.08-2.17c-1.92-1.84-3.84-3.65-5.79-5.46,0,0,0,0,0,0-.05-.04-.09-.08-.13-.12,0,0,0,0,0,0-.05-.04-.08-.08-.13-.12,0,0,0,0-.01-.01-.05-.04-.08-.07-.12-.11,0,0-.01-.01-.02-.02-.05-.04-.06-.06-.11-.1-.01-.01-.02-.02-.04-.03-.03-.03-.07-.06-.1-.09-.01-.01-.02-.02-.03-.03-.02-.02-.08-.07-.1-.09-.01-.01-.03-.03-.04-.04-.02-.02-.07-.06-.09-.08-.02-.02-.03-.03-.05-.05-.02-.02-.06-.05-.08-.07-.02-.02-.04-.04-.06-.06-.02-.02-.05-.05-.07-.07-.02-.02-.04-.04-.06-.06-.02-.02-.05-.05-.07-.07-.02-.02-.05-.04-.07-.07-.02-.02-.04-.04-.06-.06-.03-.02-.05-.05-.08-.07-.02-.02-.03-.03-.06-.05-.03-.03-.06-.05-.09-.08-.02-.02-.03-.03-.05-.05-.03-.03-.05-.05-.08-.08-.02-.02-.03-.03-.06-.05-.03-.03-.06-.05-.08-.08-.02-.02-.03-.03-.05-.05-.03-.03-.06-.05-.09-.08-.02-.02-.03-.03-.05-.05-.03-.03-.06-.05-.09-.08-.02-.02-.03-.02-.05-.04-.03-.03-.06-.05-.09-.08-.02-.02-.03-.03-.05-.05-.03-.03-.06-.05-.09-.08-.02-.02-.03-.03-.05-.05-.03-.03-.06-.05-.08-.08-.02-.02-.03-.03-.05-.05-.03-.03-.06-.05-.09-.08-.02-.02-.03-.03-.05-.05-.03-.02-.05-.05-.08-.07-.01-.01-.02-.02-.03-.03h0Zm-18.1-15.76l-1.92,2.31c3.05,2.53,6.1,5.13,9.09,7.72l1.97-2.26c-3.02-2.63-6.06-5.22-9.14-7.77h0Zm-18.83-14.87l-1.8,2.4c3.16,2.38,6.34,4.83,9.45,7.28l1.86-2.35c-3.14-2.48-6.3-4.92-9.51-7.32h0Zm-19.52-13.96l-1.69,2.48c3.27,2.22,6.57,4.52,9.79,6.82l1.74-2.44c-2.74-1.96-5.51-3.89-8.29-5.8-.01,0-.02-.02-.04-.03-.04-.03-.08-.05-.11-.08-.05-.04-.07-.05-.13-.09,0,0-.01,0-.02-.01-.41-.28-.85-.58-1.26-.86h0Zm-20.17-13.01l-1.57,2.56c3.38,2.06,6.77,4.2,10.1,6.34l1.63-2.52c-1.48-.95-2.97-1.91-4.46-2.84,0,0,0,0,0,0-.05-.03-.1-.06-.15-.1,0,0,0,0-.01,0-.05-.03-.09-.06-.14-.09,0,0-.01,0-.02-.01-.05-.03-.08-.05-.13-.08-.01,0-.03-.02-.04-.03-.04-.03-.08-.05-.12-.07-.01,0-.03-.02-.04-.03-.04-.03-.07-.04-.11-.07-.02-.01-.04-.03-.06-.04-.04-.03-.05-.03-.09-.06-.03-.02-.05-.03-.08-.05-.03-.02-.05-.03-.08-.05-.03-.02-.05-.03-.08-.05-.03-.02-.06-.04-.08-.05-.03-.02-.05-.03-.08-.05-.01,0-.06-.04-.07-.05-.03-.02-.06-.04-.09-.06-.01,0-.05-.03-.06-.04-.03-.02-.07-.04-.1-.06-.01,0-.04-.03-.06-.04-.03-.02-.07-.04-.1-.06-.01,0-.05-.03-.06-.04-.03-.02-.06-.04-.1-.06-.01,0-.05-.03-.06-.04-.03-.02-.07-.04-.1-.06-.01,0-.05-.03-.06-.04-.03-.02-.06-.04-.1-.06-.01,0-.05-.03-.06-.04-.03-.02-.06-.04-.09-.06-.01,0-.06-.03-.07-.04-.03-.02-.06-.04-.09-.05-.01,0-.06-.04-.07-.05-.03-.02-.06-.04-.08-.05-.03-.02-.05-.03-.08-.05-.03-.02-.05-.03-.08-.05-.03-.02-.05-.03-.08-.05-.03-.02-.05-.03-.08-.05-.03-.02-.06-.04-.09-.05-.02-.01-.04-.03-.07-.04-.03-.02-.07-.04-.09-.06-.02-.01-.04-.03-.06-.04-.03-.02-.07-.04-.1-.06-.02-.01-.04-.03-.06-.04-.03-.02-.07-.04-.1-.06-.02-.01-.04-.02-.06-.04-.04-.02-.07-.04-.11-.07-.02,0-.03-.02-.05-.03-.04-.02-.07-.05-.11-.07-.01,0-.03-.02-.04-.03-.04-.02-.08-.05-.12-.07-.01,0-.02-.02-.04-.02-.04-.02-.09-.05-.13-.08,0,0-.02-.01-.03-.02-.05-.03-.09-.05-.14-.09,0,0,0,0,0,0-.4-.25-.81-.5-1.22-.75h0Zm-20.77-12.02l-1.44,2.63c3.47,1.9,6.97,3.87,10.39,5.85l1.5-2.6c-2.16-1.25-4.34-2.49-6.52-3.71-.05-.03-.1-.06-.15-.08h0c-1.26-.71-2.51-1.4-3.78-2.09h0Zm-21.32-11.01l-1.31,2.7c3.56,1.73,7.15,3.53,10.66,5.34l1.38-2.67s-.04-.02-.06-.03c-.03-.01-.06-.03-.08-.04-.03-.01-.05-.03-.08-.04-.03-.01-.05-.03-.08-.04-.04-.02-.05-.02-.09-.04-.03-.01-.05-.03-.08-.04-.03-.01-.05-.03-.08-.04-.03-.01-.06-.03-.08-.04-.03-.01-.05-.03-.08-.04-.03-.01-.06-.03-.09-.04-.03-.01-.05-.03-.08-.04-.03-.01-.06-.03-.09-.04-.03-.01-.05-.03-.08-.04-.03-.02-.06-.03-.09-.05-.03-.01-.05-.02-.07-.04-.03-.02-.06-.03-.09-.05-.03-.01-.05-.02-.08-.04-.03-.02-.06-.03-.09-.05-.03-.01-.05-.02-.08-.04-.03-.01-.06-.03-.09-.04-.04-.02-.05-.03-.09-.05-.03-.01-.05-.03-.08-.04-.04-.02-.05-.03-.1-.05-.02-.01-.05-.02-.07-.04-.04-.02-.06-.03-.1-.05-.02-.01-.05-.02-.07-.04-.04-.02-.07-.03-.11-.05-.02,0-.04-.02-.06-.03-.04-.02-.09-.04-.13-.06-.01,0-.03-.01-.04-.02-.06-.03-.09-.05-.15-.07,0,0-.01,0-.02,0-.04-.02-.09-.05-.13-.07-.01,0-.03-.01-.04-.02-.06-.03-.09-.05-.15-.07,0,0-.01,0-.02-.01-.06-.03-.11-.05-.16-.08,0,0,0,0,0,0-1.01-.51-2.03-1.02-3.04-1.53,0,0-.02,0-.02-.01-.06-.03-.09-.04-.15-.07,0,0-.02,0-.03-.01-.04-.02-.1-.05-.14-.07-.02,0-.04-.02-.05-.03-.04-.02-.07-.04-.12-.06-.02-.01-.04-.02-.06-.03-.04-.02-.06-.03-.1-.05-.03-.02-.06-.03-.1-.05-.03-.01-.04-.02-.07-.04-.03-.02-.07-.03-.1-.05-.03-.01-.03-.02-.06-.03-.04-.02-.07-.04-.11-.05-.03-.01-.03-.02-.06-.03-.04-.02-.08-.04-.13-.06l-.04-.02s-.09-.05-.14-.07h-.02c-.05-.04-.11-.07-.16-.09h0c-.06-.03-.11-.06-.17-.08h0c-.9-.44-1.8-.88-2.7-1.32h0Zm-21.83-9.97l-1.18,2.76c3.64,1.56,7.31,3.18,10.91,4.82l1.25-2.73c-1.96-.89-3.93-1.78-5.9-2.65,0,0,0,0,0,0-.06-.03-.11-.05-.17-.07,0,0,0,0,0,0-.06-.03-.11-.05-.17-.07,0,0,0,0,0,0-.06-.03-.1-.04-.16-.07,0,0-.01,0-.02,0-.06-.03-.09-.04-.15-.07-.01,0-.02,0-.03-.01-.06-.03-.09-.04-.15-.06,0,0-.02,0-.02-.01-.06-.03-.09-.04-.15-.07,0,0-.02,0-.03-.01-.04-.02-.1-.04-.14-.06-.01,0-.02-.01-.04-.02-.04-.02-.08-.04-.13-.06-.02,0-.04-.02-.05-.02-.04-.02-.08-.04-.12-.05-.01,0-.03-.01-.04-.02-.04-.02-.09-.04-.13-.06-.01,0-.03-.01-.04-.02-.04-.02-.09-.04-.13-.06-.01,0-.03-.01-.04-.02-.04-.02-.09-.04-.13-.06-.01,0-.03-.01-.04-.02-.06-.03-.09-.04-.14-.06,0,0-.02,0-.02-.01-.06-.03-.09-.04-.15-.07,0,0-.01,0-.02,0-.04-.02-.1-.04-.15-.06-.01,0-.02,0-.03-.01-.04-.02-.09-.04-.14-.06-.01,0-.03-.01-.04-.02-.06-.03-.09-.04-.15-.06,0,0-.01,0-.02,0-.06-.03-.1-.04-.16-.07,0,0-.01,0-.02,0-.06-.03-.11-.05-.17-.07,0,0,0,0,0,0-.06-.03-.12-.05-.17-.07h0c-.52-.23-1.06-.46-1.58-.68h0Zm-22.28-8.91l-1.05,2.81c3.71,1.38,7.45,2.82,11.13,4.29l1.11-2.79c-.83-.33-1.64-.65-2.47-.98,0,0,0,0,0,0-.06-.02-.11-.04-.17-.07,0,0-.01,0-.02,0-.06-.02-.09-.04-.15-.06-.02,0-.03-.01-.05-.02-.04-.02-.08-.03-.12-.05-.02,0-.05-.02-.07-.03-.04-.02-.06-.02-.1-.04-.03-.01-.06-.02-.09-.03-.01,0-.07-.03-.09-.03-.03-.01-.07-.03-.1-.04-.01,0-.06-.02-.07-.03-.04-.02-.08-.03-.12-.05-.01,0-.04-.02-.06-.02-.04-.02-.08-.03-.12-.05-.01,0-.04-.02-.05-.02-.04-.02-.09-.03-.13-.05-.01,0-.03-.01-.05-.02-.04-.02-.09-.03-.13-.05-.01,0-.03-.01-.04-.02-.05-.02-.1-.04-.14-.06-.01,0-.01,0-.03-.01-.05-.02-.1-.04-.15-.06-.01,0-.01,0-.03-.01-.05-.02-.1-.04-.15-.06-.01,0,0,0-.02,0-.05-.02-.1-.04-.16-.06-.01,0,0,0-.02,0-.05-.02-.11-.04-.16-.06h-.01c-.05-.03-.11-.05-.16-.07h-.02c-.05-.03-.1-.05-.16-.07h-.02c-.05-.03-.1-.05-.16-.07h-.02c-.05-.03-.1-.05-.16-.07h-.02c-.05-.03-.1-.05-.15-.07h-.02c-.05-.03-.1-.05-.15-.07h-.02c-.05-.03-.1-.05-.15-.07t-.03-.01s-.1-.04-.15-.06c-.01,0-.01,0-.03,0-.05-.02-.1-.04-.14-.06-.01,0-.02,0-.04-.02-.04-.02-.09-.03-.13-.05-.01,0-.03-.01-.05-.02-.04-.02-.08-.03-.12-.05-.01,0-.05-.02-.06-.02-.04-.01-.08-.03-.12-.04-.01,0-.05-.02-.06-.02-.04-.01-.07-.03-.11-.04-.03-.01-.05-.02-.08-.03-.03-.01-.06-.02-.09-.04-.03-.01-.07-.03-.1-.04-.02,0-.05-.02-.07-.03-.04-.02-.07-.03-.11-.04-.02,0-.04-.02-.06-.02-.06-.02-.08-.03-.14-.05,0,0-.02,0-.02,0-1.07-.41-2.13-.81-3.21-1.2h0Zm-22.69-7.82l-.91,2.86c3.77,1.2,7.58,2.46,11.32,3.75l.98-2.84c-.38-.13-.76-.26-1.14-.39,0,0,0,0-.01,0-.06-.02-.1-.03-.16-.06,0,0-.02,0-.02,0-.06-.02-.09-.03-.15-.05-.01,0-.03,0-.04-.01-.05-.02-.09-.03-.13-.05-.02,0-.04-.01-.06-.02-.03-.01-.08-.03-.11-.04-.02,0-.05-.02-.07-.03-.03-.01-.07-.02-.1-.03-.03,0-.06-.02-.08-.03-.03-.01-.06-.02-.09-.03-.03-.01-.07-.02-.1-.03-.03-.01-.04-.01-.07-.02-.04-.01-.07-.03-.11-.04-.02,0-.05-.02-.06-.02-.04-.01-.08-.03-.12-.04-.02,0-.04-.01-.06-.02-.04-.01-.08-.03-.12-.04-.02,0-.04-.01-.06-.02-.04-.01-.08-.03-.12-.04-.02,0-.03-.01-.05-.02-.04-.01-.09-.03-.13-.04-.02,0-.02,0-.04-.01-.05-.02-.09-.03-.14-.05-.02,0-.02,0-.03-.01-.05-.02-.1-.03-.14-.05-.02,0-.02,0-.04-.01-.05-.02-.1-.03-.15-.05h-.02c-.05-.02-.1-.04-.16-.06h-.02c-.05-.03-.11-.04-.16-.06h-.01c-.05-.02-.11-.04-.16-.06h-.03s-.1-.04-.15-.06h-.03c-.05-.03-.1-.04-.15-.06-.02,0,0,0-.02,0-.11-.04-.22-.07-.34-.11-.02,0-.01,0-.03,0-.2-.07-.41-.13-.61-.2-.09-.03-.17-.06-.26-.09,0,0-.02,0-.02,0-.06-.02-.1-.03-.16-.05,0,0,0,0,0,0-.06-.02-.11-.04-.17-.06,0,0-.01,0-.02,0-.24-.08-.47-.15-.71-.23h0c-1.47-.48-2.95-.96-4.43-1.43h0Zm-23.04-6.71l-.77,2.9c3.83,1.01,7.69,2.09,11.49,3.2l.84-2.88c-.48-.14-.95-.28-1.43-.41h-.01c-.05-.02-.11-.04-.16-.05h-.03s-.1-.04-.15-.05c-.02,0-.04-.01-.05-.02-.04-.01-.08-.02-.12-.03-.03,0-.05-.01-.08-.02-.03,0-.06-.02-.09-.03-.03,0-.08-.02-.11-.03-.02,0-.04-.01-.07-.02-.05-.01-.08-.02-.13-.04-.02,0-.03,0-.05-.01-.06-.02-.09-.03-.16-.04,0,0-.01,0-.02,0-2.96-.85-5.92-1.66-8.91-2.45h0Zm-23.34-5.59l-.63,2.93c3.87.83,7.78,1.72,11.63,2.64l.7-2.92c-3.69-.88-7.4-1.73-11.12-2.53-.02,0-.02,0-.04,0-.04,0-.07-.02-.11-.02-.03,0-.06-.01-.09-.02-.03,0-.05-.01-.08-.02-.05-.01-.07-.01-.11-.02-.02,0-.04,0-.05-.01-.03,0-.08-.02-.11-.02h0Zm-23.58-4.46l-.49,2.96c3.91.64,7.86,1.34,11.75,2.07l.56-2.95c-2.19-.41-4.38-.81-6.58-1.2-.02,0-.05,0-.06-.01-.02,0-.05,0-.07-.01-.05,0-.07-.01-.12-.02-.02,0-.03,0-.05,0-.05,0-.1-.02-.15-.03,0,0-.01,0-.02,0-.06-.01-.11-.02-.17-.03,0,0,0,0,0,0-1.53-.27-3.05-.52-4.58-.77h0Zm-23.77-3.32l-.34,2.98c3.93.45,7.91.96,11.83,1.51l.41-2.97c-.56-.08-1.11-.15-1.67-.23h0c-.06,0-.12-.02-.18-.02h0c-.06,0-.12-.02-.18-.03h0c-.06,0-.12-.02-.18-.03-.02,0,0,0-.01,0-.06,0-.12-.02-.17-.02h-.01c-.06,0-.11-.02-.17-.02h-.02c-.06,0-.11-.02-.17-.02h-.02c-.05-.01-.11-.02-.16-.03h-.02c-.05-.01-.11-.02-.17-.02-.02,0-.03,0-.04,0-.05,0-.1-.01-.14-.02-.07,0-.1-.01-.17-.02,0,0-.01,0-.02,0-.07,0-.13-.02-.19-.03-.01,0-.02,0-.03,0-.05,0-.11-.02-.16-.02,0,0-.02,0-.03,0-.07,0-.1-.01-.17-.02,0,0-.02,0-.03,0-.07,0-.11-.01-.17-.02,0,0,0,0-.01,0-.07,0-.12-.02-.18-.02,0,0,0,0,0,0-2.46-.32-4.93-.62-7.4-.91h0Zm-23.9-2.18l-.2,2.99c3.95.26,7.95.58,11.89.94l.27-2.99c-3.13-.28-6.27-.54-9.41-.77,0,0-.01,0-.02,0-.07,0-.1,0-.17-.01-.01,0-.03,0-.04,0-.05,0-.09,0-.14-.01-.02,0-.04,0-.06,0-.03,0-.08,0-.12,0-.03,0-.06,0-.09,0-.03,0-.07,0-.1,0-.03,0-.07,0-.1,0-.02,0-.06,0-.08,0-.04,0-.08,0-.12,0-.02,0-.03,0-.05,0-.49-.03-.98-.07-1.47-.1h0Zm-23.98-1.04l-.06,3c3.96.08,7.97.2,11.92.37l.13-3c-3.99-.17-7.98-.3-11.99-.38h0Z"/>
  </g>
</svg>