<?xml version="1.0" encoding="UTF-8"?>
<svg id="Calque_2" data-name="Calque 2" xmlns="http://www.w3.org/2000/svg" viewBox="0 0 1561.29 1852.02">
  <g id="Layer_1" data-name="Layer 1">
    <g>
      <rect x="106.02" y="-28.48" width="58.3" height="316.62" transform="translate(-52.02 139.07) rotate(-46.67)" style="fill: #fff; stroke-width: 0px;"/>
      <polygon points="1372.87 1046.71 1331.56 1098.28 389.72 377.95 465.54 283.31 1372.87 1046.71" style="fill: #fff; stroke-width: 0px;"/>
      <polygon points="668.51 1559.35 604.64 1576.26 282.77 428.02 401.53 403.77 668.51 1559.35" style="fill: #fff; stroke-width: 0px;"/>
      <path d="m673.33,1600.06c11.66,13.36,10.29,33.64-3.07,45.3-13.36,11.66-33.64,10.29-45.3-3.07-11.66-13.36-10.29-33.64,3.07-45.3,13.36-11.66,33.64-10.29,45.3,3.07Z" style="fill: #fff; stroke-width: 0px;"/>
      <path d="m1421.22,1084.71c9.74,14.81,5.63,34.72-9.18,44.46s-34.72,5.63-44.46-9.18c-9.74-14.81-5.63-34.72,9.18-44.46,14.81-9.74,34.72-5.63,44.46,9.18Z" style="fill: #fff; stroke-width: 0px;"/>
      <polygon points="697.54 1658.83 740.97 1852.02 636.31 1686.4 697.54 1658.83" style="fill: #fff; stroke-width: 0px;"/>
      <polygon points="1449.02 1117.45 1561.29 1280.56 1402.47 1165.85 1449.02 1117.45" style="fill: #fff; stroke-width: 0px;"/>
      <g>
        <path d="m574.84,408.91c-49.19,49.44-96.91,100.04-143.39,152.02-117.17-74.45-235.81-146.37-356.12-215.62,29.76-146.22,119.14-241.06,263.47-279.33,76.16,116.06,154.88,230.3,236.05,342.92Z" style="fill: #fff; stroke: #000; stroke-miterlimit: 10; stroke-width: 3px;"/>
        <path d="m586.78,409.86l-5.46,5.49c-48.79,49.03-96.92,100.06-143.06,151.67l-5.16,5.78-6.54-4.16c-117.84-74.88-237.54-147.35-355.78-215.41l-5.7-3.28,1.31-6.45c15.16-74.47,45.8-136.58,91.08-184.59l.02-.02c45.29-48.02,105.5-82.24,178.98-101.72l6.36-1.69,3.61,5.5c74.83,114.03,154.17,229.3,235.82,342.59l4.53,6.29Z" style="fill: #fff; stroke: #0d1854; stroke-miterlimit: 10; stroke-width: 20px;"/>
      </g>
      <path d="m439.37,363.87c18.52,17.47,19.37,46.64,1.9,65.15-17.47,18.52-46.64,19.37-65.15,1.9-18.52-17.47-19.37-46.64-1.9-65.15,17.47-18.52,46.64-19.37,65.15-1.9Z" style="fill: #0d1854; stroke-width: 0px;"/>
    </g>
  </g>
</svg>