<?xml version="1.0" encoding="UTF-8"?>
<svg id="Calque_2" data-name="Calque 2" xmlns="http://www.w3.org/2000/svg" viewBox="0 0 203.18 119.18">
  <defs>
    <style>
      .cls-1 {
        fill: #e4e4e4;
      }

      .cls-1, .cls-2, .cls-3 {
        stroke-width: 0px;
      }

      .cls-2 {
        fill: #fff;
      }

      .cls-3 {
        fill: #0bb89b;
      }
    </style>
  </defs>
  <g id="Calque_1-2" data-name="Calque 1">
    <g id="mediaLand-Group">
      <path class="cls-1" d="m62.08,106.82v3.22h5.61c-.21.52-.53,1-.96,1.43-.84.84-1.85,1.26-3.04,1.26s-2.2-.42-3.04-1.26-1.26-1.85-1.26-3.04.42-2.2,1.26-3.04,1.85-1.26,3.04-1.26,2.2.42,3.04,1.26c.12.11.22.23.32.35h3.68c-.37-.97-.94-1.84-1.73-2.63-1.47-1.47-3.24-2.2-5.32-2.2s-3.85.73-5.32,2.2c-1.47,1.47-2.2,3.24-2.2,5.32s.73,3.85,2.2,5.32c1.47,1.47,3.24,2.2,5.32,2.2s3.85-.73,5.32-2.2,2.2-3.24,2.2-5.32c0-.56-.05-1.1-.16-1.61h-8.97Z"/>
      <path class="cls-1" d="m78.88,108.43v7.52h3.22v-7.52c0-1.19.42-2.2,1.26-3.04.84-.84,1.85-1.26,3.04-1.26v-3.22c-2.08,0-3.85.73-5.32,2.2s-2.2,3.24-2.2,5.32"/>
      <path class="cls-1" d="m104.64,111.47c-.84.84-1.85,1.26-3.04,1.26s-2.2-.42-3.04-1.26c-.84-.84-1.26-1.85-1.26-3.04s.42-2.2,1.26-3.04,1.85-1.26,3.04-1.26,2.2.42,3.04,1.26c.84.84,1.26,1.85,1.26,3.04s-.42,2.2-1.26,3.04m-3.04-10.56c-2.08,0-3.85.73-5.32,2.2-1.47,1.47-2.2,3.24-2.2,5.32s.73,3.85,2.2,5.32c1.47,1.47,3.24,2.2,5.32,2.2s3.85-.73,5.32-2.2c1.47-1.47,2.2-3.24,2.2-5.32s-.73-3.85-2.2-5.32c-1.47-1.47-3.24-2.2-5.32-2.2"/>
      <path class="cls-1" d="m128.62,108.43c0,1.19-.42,2.2-1.26,3.04-.84.84-1.85,1.26-3.04,1.26s-2.2-.42-3.04-1.26c-.84-.84-1.26-1.85-1.26-3.04v-7.52h-3.22v7.52c0,2.08.73,3.85,2.2,5.32s3.24,2.2,5.32,2.2,3.85-.73,5.32-2.2c1.47-1.47,2.2-3.24,2.2-5.32v-7.52h-3.22v7.52Z"/>
      <path class="cls-1" d="m150.08,111.47c-.84.84-1.85,1.26-3.04,1.26s-2.2-.42-3.04-1.26c-.84-.84-1.26-1.85-1.26-3.04s.42-2.2,1.26-3.04c.84-.84,1.85-1.26,3.04-1.26s2.2.42,3.04,1.26c.84.84,1.26,1.85,1.26,3.04s-.42,2.2-1.26,3.04m-3.04-10.56c-2.08,0-3.85.73-5.32,2.2-1.47,1.47-2.2,3.24-2.2,5.32v10.75h3.22v-4.56c1.25.89,2.68,1.33,4.3,1.33,2.08,0,3.85-.73,5.32-2.2,1.47-1.47,2.2-3.24,2.2-5.32s-.73-3.85-2.2-5.32c-1.47-1.47-3.24-2.2-5.32-2.2"/>
      <path class="cls-3" d="m91.32,18.03h-31.57c-1.97,0-3.56,1.59-3.56,3.56s1.6,3.56,3.56,3.56h31.57c1.97,0,3.56-1.59,3.56-3.56s-1.6-3.56-3.56-3.56"/>
      <path class="cls-3" d="m26.33,30.99c.97,0,1.9-.4,2.58-1.1l16.63-17.44v38.07c0,1.97,1.6,3.56,3.56,3.56s3.56-1.59,3.56-3.56V3.56c0-1.46-.89-2.77-2.24-3.31-1.35-.54-2.9-.21-3.9.85l-20.19,21.17L6.14,1.1C5.13.05,3.59-.29,2.24.26.89.8,0,2.11,0,3.56v88.76c0,1.97,1.59,3.56,3.56,3.56s3.56-1.59,3.56-3.56V12.45l16.63,17.44c.67.7,1.6,1.1,2.58,1.1"/>
      <path class="cls-2" d="m91.32,37.64c1.97,0,3.56-1.59,3.56-3.56s-1.6-3.56-3.56-3.56h-31.57c-1.97,0-3.56,1.59-3.56,3.56v16.44c0,1.97,1.6,3.56,3.56,3.56h31.57c1.97,0,3.56-1.59,3.56-3.56s-1.6-3.56-3.56-3.56h-28.01v-9.32h28.01Z"/>
      <path class="cls-2" d="m136.61,31.79v8.55c0,3.66-2.98,6.63-6.63,6.63h-23.41v-21.81h23.41c3.66,0,6.63,2.97,6.63,6.63m-33.6-13.75c-1.97,0-3.56,1.59-3.56,3.56v28.93c0,1.97,1.59,3.56,3.56,3.56h26.97c7.58,0,13.75-6.17,13.75-13.75v-8.55c0-7.58-6.17-13.75-13.75-13.75h-26.97Z"/>
      <path class="cls-2" d="m196.04,81.95c0,3.68-2.97,6.68-6.62,6.68h-23.4v-21.96h23.4c3.65,0,6.62,3,6.62,6.68v8.6Zm-6.62-22.42h-26.97c-1.97,0-3.57,1.6-3.57,3.57v29.11c0,1.97,1.6,3.57,3.57,3.57h26.97c7.59,0,13.76-6.2,13.76-13.83v-8.6c0-7.62-6.17-13.83-13.76-13.83"/>
      <path class="cls-2" d="m159.85,53.7c.59.37,1.24.54,1.88.54,1.19,0,2.35-.59,3.02-1.67l5.84-9.33h19.88l6.15,9.39c.68,1.04,1.82,1.61,2.98,1.61.67,0,1.35-.19,1.95-.58,1.65-1.08,2.11-3.29,1.03-4.93l-18.99-29.02c-1.08-1.65-3.28-2.11-4.93-1.03s-2.11,3.28-1.03,4.93l8.18,12.51h-17.2c-1.23,0-2.37.63-3.02,1.67l-6.88,11.01c-1.04,1.67-.54,3.86,1.13,4.91"/>
      <path class="cls-2" d="m98.36,94.26c.68,1.04,1.82,1.61,2.98,1.61.78,0,1.56-.25,2.23-.79,1.45-1.16,1.7-3.26.69-4.81l-19.18-29.31c-1.1-1.68-3.37-2.12-5.02-.97-1.6,1.12-1.92,3.36-.86,4.99l8.35,12.75h-17.2c-1.23,0-2.37.63-3.02,1.67l-5.78,9.24h-31.66v-38.93c2.8-1.43,4.64-4.49,4.24-7.93-.41-3.59-3.32-6.48-6.91-6.88-4.74-.53-8.76,3.17-8.76,7.81,0,3.06,1.75,5.7,4.3,7v42.49c0,1.97,1.6,3.56,3.56,3.56h36.39c.25.05.5.09.75.09,1.19,0,2.35-.59,3.02-1.67l5.84-9.33h19.88l6.15,9.39Z"/>
      <path class="cls-2" d="m150.93,59.54c-1.97,0-3.56,1.59-3.56,3.56v21.95l-32.69-24.84c-1.08-.82-2.52-.96-3.74-.35-1.21.6-1.98,1.84-1.98,3.19v29.28c0,1.97,1.59,3.56,3.56,3.56s3.56-1.59,3.56-3.56v-22.1l32.69,24.84c1.08.82,2.53.96,3.74.35,1.21-.6,1.98-1.84,1.98-3.19v-29.12c0-1.97-1.59-3.56-3.56-3.56"/>
      <path class="cls-2" d="m151.13,17.92c-1.97,0-3.56,1.59-3.56,3.56v29.16c0,1.97,1.59,3.56,3.56,3.56s3.56-1.59,3.56-3.56v-29.16c0-1.97-1.59-3.56-3.56-3.56"/>
      <path class="cls-1" d="m82.82,11.47h0c1.34,0,2.43-1.09,2.43-2.43V3.56c0-.67-.54-1.21-1.21-1.21s-1.21.54-1.21,1.21v7.9Z"/>
      <path class="cls-1" d="m82.82,11.47h0c1.34,0,2.43-1.09,2.43-2.43v-3.82c0-.54-.44-.98-.98-.98h-.46c-.54,0-.98.44-.98.98v6.24Z"/>
      <path class="cls-1" d="m82.44,11.47h-18.9v-2.34h21.24c0,1.29-1.05,2.34-2.34,2.34"/>
      <path class="cls-1" d="m91.33,0c-.64,0-1.17.52-1.17,1.17v4.77c0,.64.52,1.17,1.17,1.17s1.17-.52,1.17-1.17V1.17C92.5.52,91.98,0,91.33,0"/>
      <path class="cls-1" d="m80.76,3.75c0,.77-.63,1.4-1.4,1.4s-1.4-.63-1.4-1.4.63-1.4,1.4-1.4,1.4.63,1.4,1.4"/>
      <path class="cls-1" d="m63.18,2.35h-5.83c-.64,0-1.16.52-1.16,1.16s.52,1.16,1.16,1.16h5.83c1.19,0,2.15.97,2.15,2.17v.12c0,1.2-.97,2.17-2.15,2.17h-5.83c-.64,0-1.16.52-1.16,1.16s.52,1.16,1.16,1.16h5.83c2.47,0,4.48-2.02,4.48-4.5v-.12c0-2.48-2.01-4.5-4.48-4.5"/>
      <path class="cls-1" d="m86.78,6.99v-.09c0-.64.52-1.16,1.16-1.16s1.16.52,1.16,1.16v.09c0,1.19.98,2.15,2.17,2.15h.12c1.2,0,2.17-.97,2.17-2.15V1.16c0-.64.52-1.16,1.16-1.16s1.16.52,1.16,1.16v5.83c0,2.47-2.02,4.48-4.5,4.48h-.12c-2.48,0-4.5-2.01-4.5-4.48"/>
      <path class="cls-1" d="m143.16,11.47h0c1.31,0,2.38-1.06,2.38-2.38V2.35h-.3c-1.18,0-2.13.95-2.13,2.13v6.94s.02.05.05.05"/>
      <path class="cls-1" d="m133.23,11.47h0c1.34,0,2.43-1.09,2.43-2.43V3.56c0-.67-.54-1.21-1.21-1.21s-1.21.54-1.21,1.21v7.9Z"/>
      <path class="cls-1" d="m129.37,11.47h-13.03v-2.34h15.37c0,1.29-1.05,2.34-2.34,2.34"/>
      <path class="cls-1" d="m134.63,11.47h-8.18v-2.34h16.1c0,1.29-6.62,2.34-7.91,2.34"/>
      <path class="cls-1" d="m127.33,13.36c0,.77-.63,1.4-1.4,1.4s-1.4-.63-1.4-1.4.63-1.4,1.4-1.4,1.4.63,1.4,1.4"/>
      <path class="cls-1" d="m130.5,13.36c0,.77-.63,1.4-1.4,1.4s-1.4-.63-1.4-1.4.63-1.4,1.4-1.4,1.4.63,1.4,1.4"/>
      <path class="cls-1" d="m103.83,13.36c0,.77-.63,1.4-1.4,1.4s-1.4-.63-1.4-1.4.63-1.4,1.4-1.4,1.4.63,1.4,1.4"/>
      <path class="cls-1" d="m107,13.36c0,.77-.63,1.4-1.4,1.4s-1.4-.63-1.4-1.4.63-1.4,1.4-1.4,1.4.63,1.4,1.4"/>
      <path class="cls-1" d="m116.82,2.35h-5.83c-.64,0-1.16.52-1.16,1.16s.52,1.16,1.16,1.16h5.83c1.19,0,2.15.97,2.15,2.17v.12c0,1.2-.97,2.17-2.15,2.17h-5.83c-.64,0-1.16.52-1.16,1.16s.52,1.16,1.16,1.16h5.83c2.47,0,4.48-2.02,4.48-4.5v-.12c0-2.48-2.01-4.5-4.48-4.5"/>
      <path class="cls-1" d="m108.57,6.99v-3.48c0-.64-.52-1.16-1.16-1.16s-1.16.52-1.16,1.16v3.48c0,1.19-.98,2.15-2.17,2.15h-.12c-1.2,0-2.17-.97-2.17-2.15V1.16c0-.64-.52-1.16-1.16-1.16s-1.16.52-1.16,1.16v5.83c0,2.47,2.02,4.48,4.5,4.48h.12c2.48,0,4.5-2.01,4.5-4.48"/>
      <path class="cls-1" d="m150.22,2.35h-4.99c-.64,0-.9.52-.9,1.16s.52,1.16,1.16,1.16h4.73c1.19,0,2.15.97,2.15,2.17v.12c0,1.2-.97,2.17-2.15,2.17h-2.54c-.64,0-1.16.52-1.16,1.16s.52,1.16,1.16,1.16h2.54c2.47,0,4.48-2.02,4.48-4.5v-.12c0-2.48-2.01-4.5-4.48-4.5"/>
      <path class="cls-1" d="m145.54,9.14h-10.5c-.61,0-1.16.44-1.22,1.04-.07.69.47,1.28,1.16,1.28h8.35c1.23,0,2.22-.99,2.22-2.22v-.11Z"/>
    </g>
  </g>
</svg>