<?xml version="1.0" encoding="UTF-8"?>
<svg id="Calque_2" data-name="Calque 2" xmlns="http://www.w3.org/2000/svg" viewBox="0 0 678 685">
  <g id="Calque_1-2" data-name="Calque 1">
    <g id="Layer_1" data-name="Layer 1">
      <path d="m339,607.51c-35.4,0-69.75-7.01-102.11-20.83-31.23-13.35-59.28-32.46-83.37-56.79s-43-52.67-56.21-84.23c-13.68-32.68-20.62-67.39-20.62-103.16s6.93-70.47,20.62-103.16c13.21-31.56,32.13-59.9,56.21-84.23,24.08-24.33,52.13-43.44,83.37-56.79,32.35-13.83,66.7-20.83,102.11-20.83,10.4,0,18.82,8.51,18.82,19.02s-8.43,19.02-18.82,19.02c-123.88,0-224.65,101.82-224.65,226.97s100.78,226.97,224.65,226.97,224.65-101.82,224.65-226.97c0-10.5,8.43-19.02,18.82-19.02s18.82,8.51,18.82,19.02c0,35.77-6.93,70.48-20.62,103.16-13.21,31.56-32.13,59.9-56.21,84.23-24.08,24.34-52.13,43.44-83.37,56.79-32.35,13.83-66.7,20.83-102.11,20.83h0Z" style="fill: #fff; stroke-width: 0px;"/>
      <path d="m339,685c-14.04,0-25.43-11.5-25.43-25.69s11.39-25.69,25.43-25.69c158.88,0,288.14-130.6,288.14-291.11S497.88,51.38,339,51.38,50.86,181.98,50.86,342.5c0,14.19-11.39,25.69-25.43,25.69S0,356.69,0,342.5c0-46.22,8.97-91.09,26.65-133.33,17.07-40.79,41.52-77.41,72.64-108.86,31.12-31.45,67.37-56.14,107.75-73.39C248.85,9.06,293.24,0,339,0s90.15,9.06,131.96,26.93c40.37,17.25,76.62,41.95,107.75,73.39,31.13,31.44,55.57,68.07,72.64,108.86,17.68,42.24,26.65,87.1,26.65,133.33s-8.97,91.09-26.65,133.33c-17.07,40.79-41.52,77.41-72.64,108.86-31.12,31.44-67.37,56.14-107.75,73.39-41.81,17.86-86.2,26.93-131.96,26.93h0Z" style="fill: #fff; stroke-width: 0px;"/>
    </g>
  </g>
</svg>